  0
SECTION
  2
HEADER
  9
$ACADVER
  1
AC1024
  9
$ACADMAINTVER
 70
6
  9
$DWGCODEPAGE
  3
ANSI_1252
  9
$LASTSAVEDBY
  1
ezdxf
  9
$INSBASE
 10
0.0
 20
0.0
 30
0.0
  9
$EXTMIN
 10
1e+20
 20
1e+20
 30
1e+20
  9
$EXTMAX
 10
-1e+20
 20
-1e+20
 30
-1e+20
  9
$LIMMIN
 10
0.0
 20
0.0
  9
$LIMMAX
 10
420.0
 20
297.0
  9
$ORTHOMODE
 70
0
  9
$REGENMODE
 70
1
  9
$FILLMODE
 70
1
  9
$QTEXTMODE
 70
0
  9
$MIRRTEXT
 70
1
  9
$LTSCALE
 40
1.0
  9
$ATTMODE
 70
1
  9
$TEXTSIZE
 40
2.5
  9
$TRACEWID
 40
1.0
  9
$TEXTSTYLE
  7
OpenSans
  9
$CLAYER
  8
0
  9
$CELTYPE
  6
ByLayer
  9
$CECOLOR
 62
256
  9
$CELTSCALE
 40
1.0
  9
$DISPSILH
 70
0
  9
$DIMSCALE
 40
1.0
  9
$DIMASZ
 40
0.175
  9
$DIMEXO
 40
0.125
  9
$DIMDLI
 40
3.75
  9
$DIMRND
 40
0.0
  9
$DIMDLE
 40
0.0
  9
$DIMEXE
 40
0.375
  9
$DIMTP
 40
0.0
  9
$DIMTM
 40
0.0
  9
$DIMTXT
 40
0.25
  9
$DIMCEN
 40
2.5
  9
$DIMTSZ
 40
0.0
  9
$DIMTOL
 70
0
  9
$DIMLIM
 70
0
  9
$DIMTIH
 70
0
  9
$DIMTOH
 70
0
  9
$DIMSE1
 70
0
  9
$DIMSE2
 70
0
  9
$DIMTAD
 70
1
  9
$DIMZIN
 70
12
  9
$DIMBLK
  1
ARCHTICK
  9
$DIMASO
 70
1
  9
$DIMSHO
 70
1
  9
$DIMPOST
  1

  9
$DIMAPOST
  1

  9
$DIMALT
 70
0
  9
$DIMALTD
 70
3
  9
$DIMALTF
 40
0.03937007874
  9
$DIMLFAC
 40
100.0
  9
$DIMTOFL
 70
1
  9
$DIMTVP
 40
0.0
  9
$DIMTIX
 70
0
  9
$DIMSOXD
 70
0
  9
$DIMSAH
 70
0
  9
$DIMBLK1
  1

  9
$DIMBLK2
  1

  9
$DIMSTYLE
  2
EZDXF
  9
$DIMCLRD
 70
0
  9
$DIMCLRE
 70
0
  9
$DIMCLRT
 70
0
  9
$DIMTFAC
 40
0.5
  9
$DIMGAP
 40
0.1
  9
$DIMJUST
 70
0
  9
$DIMSD1
 70
0
  9
$DIMSD2
 70
0
  9
$DIMTOLJ
 70
0
  9
$DIMTZIN
 70
8
  9
$DIMALTZ
 70
0
  9
$DIMALTTZ
 70
0
  9
$DIMUPT
 70
1
  9
$DIMDEC
 70
2
  9
$DIMTDEC
 70
2
  9
$DIMALTU
 70
2
  9
$DIMALTTD
 70
3
  9
$DIMTXSTY
  7
OpenSansCondensed-Light
  9
$DIMAUNIT
 70
0
  9
$DIMADEC
 70
2
  9
$DIMALTRND
 40
0.0
  9
$DIMAZIN
 70
3
  9
$DIMDSEP
 70
46
  9
$DIMATFIT
 70
3
  9
$DIMFRAC
 70
0
  9
$DIMLDRBLK
  1

  9
$DIMLUNIT
 70
2
  9
$DIMLWD
 70
-2
  9
$DIMLWE
 70
-2
  9
$DIMTMOVE
 70
2
  9
$DIMFXL
 40
1.0
  9
$DIMFXLON
 70
0
  9
$DIMJOGANG
 40
0.785398163397
  9
$DIMTFILL
 70
0
  9
$DIMTFILLCLR
 70
0
  9
$DIMARCSYM
 70
0
  9
$DIMLTYPE
  6

  9
$DIMLTEX1
  6

  9
$DIMLTEX2
  6

  9
$DIMTXTDIRECTION
 70
0
  9
$LUNITS
 70
2
  9
$LUPREC
 70
4
  9
$SKETCHINC
 40
1.0
  9
$FILLETRAD
 40
10.0
  9
$AUNITS
 70
0
  9
$AUPREC
 70
2
  9
$MENU
  1
.
  9
$ELEVATION
 40
0.0
  9
$PELEVATION
 40
0.0
  9
$THICKNESS
 40
0.0
  9
$LIMCHECK
 70
0
  9
$CHAMFERA
 40
0.0
  9
$CHAMFERB
 40
0.0
  9
$CHAMFERC
 40
0.0
  9
$CHAMFERD
 40
0.0
  9
$SKPOLY
 70
0
  9
$TDCREATE
 40
2461182.6797569445
  9
$TDUCREATE
 40
2458532.153996898
  9
$TDUPDATE
 40
2461182.6797569445
  9
$TDUUPDATE
 40
2458532.1544311
  9
$TDINDWG
 40
0.0
  9
$TDUSRTIMER
 40
0.0
  9
$USRTIMER
 70
1
  9
$ANGBASE
 50
0.0
  9
$ANGDIR
 70
0
  9
$PDMODE
 70
0
  9
$PDSIZE
 40
0.0
  9
$PLINEWID
 40
0.0
  9
$SPLFRAME
 70
0
  9
$SPLINETYPE
 70
6
  9
$SPLINESEGS
 70
8
  9
$HANDSEED
  5
BA
  9
$SURFTAB1
 70
6
  9
$SURFTAB2
 70
6
  9
$SURFTYPE
 70
6
  9
$SURFU
 70
6
  9
$SURFV
 70
6
  9
$UCSBASE
  2

  9
$UCSNAME
  2

  9
$UCSORG
 10
0.0
 20
0.0
 30
0.0
  9
$UCSXDIR
 10
1.0
 20
0.0
 30
0.0
  9
$UCSYDIR
 10
0.0
 20
1.0
 30
0.0
  9
$UCSORTHOREF
  2

  9
$UCSORTHOVIEW
 70
0
  9
$UCSORGTOP
 10
0.0
 20
0.0
 30
0.0
  9
$UCSORGBOTTOM
 10
0.0
 20
0.0
 30
0.0
  9
$UCSORGLEFT
 10
0.0
 20
0.0
 30
0.0
  9
$UCSORGRIGHT
 10
0.0
 20
0.0
 30
0.0
  9
$UCSORGFRONT
 10
0.0
 20
0.0
 30
0.0
  9
$UCSORGBACK
 10
0.0
 20
0.0
 30
0.0
  9
$PUCSBASE
  2

  9
$PUCSNAME
  2

  9
$PUCSORG
 10
0.0
 20
0.0
 30
0.0
  9
$PUCSXDIR
 10
1.0
 20
0.0
 30
0.0
  9
$PUCSYDIR
 10
0.0
 20
1.0
 30
0.0
  9
$PUCSORTHOREF
  2

  9
$PUCSORTHOVIEW
 70
0
  9
$PUCSORGTOP
 10
0.0
 20
0.0
 30
0.0
  9
$PUCSORGBOTTOM
 10
0.0
 20
0.0
 30
0.0
  9
$PUCSORGLEFT
 10
0.0
 20
0.0
 30
0.0
  9
$PUCSORGRIGHT
 10
0.0
 20
0.0
 30
0.0
  9
$PUCSORGFRONT
 10
0.0
 20
0.0
 30
0.0
  9
$PUCSORGBACK
 10
0.0
 20
0.0
 30
0.0
  9
$USERI1
 70
0
  9
$USERI2
 70
0
  9
$USERI3
 70
0
  9
$USERI4
 70
0
  9
$USERI5
 70
0
  9
$USERR1
 40
0.0
  9
$USERR2
 40
0.0
  9
$USERR3
 40
0.0
  9
$USERR4
 40
0.0
  9
$USERR5
 40
0.0
  9
$WORLDVIEW
 70
1
  9
$SHADEDGE
 70
3
  9
$SHADEDIF
 70
70
  9
$TILEMODE
 70
1
  9
$MAXACTVP
 70
64
  9
$PINSBASE
 10
0.0
 20
0.0
 30
0.0
  9
$PLIMCHECK
 70
0
  9
$PEXTMIN
 10
1e+20
 20
1e+20
 30
1e+20
  9
$PEXTMAX
 10
-1e+20
 20
-1e+20
 30
-1e+20
  9
$PLIMMIN
 10
0.0
 20
0.0
  9
$PLIMMAX
 10
420.0
 20
297.0
  9
$UNITMODE
 70
0
  9
$VISRETAIN
 70
1
  9
$PLINEGEN
 70
0
  9
$PSLTSCALE
 70
1
  9
$TREEDEPTH
 70
3020
  9
$CMLSTYLE
  2
Standard
  9
$CMLJUST
 70
0
  9
$CMLSCALE
 40
20.0
  9
$PROXYGRAPHICS
 70
1
  9
$MEASUREMENT
 70
1
  9
$CELWEIGHT
370
-1
  9
$ENDCAPS
280
0
  9
$JOINSTYLE
280
0
  9
$LWDISPLAY
290
0
  9
$INSUNITS
 70
4
  9
$HYPERLINKBASE
  1

  9
$STYLESHEET
  1

  9
$XEDIT
290
1
  9
$CEPSNTYPE
380
0
  9
$PSTYLEMODE
290
1
  9
$FINGERPRINTGUID
  2
{650C6F99-09A2-4436-B1DA-54CBCC3F4F38}
  9
$VERSIONGUID
  2
{893652CD-B89E-4532-9ED0-966A81B48CB1}
  9
$EXTNAMES
290
1
  9
$PSVPSCALE
 40
0.0
  9
$OLESTARTUP
290
0
  9
$SORTENTS
280
127
  9
$INDEXCTL
280
0
  9
$HIDETEXT
280
1
  9
$XCLIPFRAME
280
1
  9
$HALOGAP
280
0
  9
$OBSCOLOR
 70
257
  9
$OBSLTYPE
280
0
  9
$INTERSECTIONDISPLAY
280
0
  9
$INTERSECTIONCOLOR
 70
257
  9
$DIMASSOC
280
2
  9
$PROJECTNAME
  1

  9
$CAMERADISPLAY
290
0
  9
$LENSLENGTH
 40
50.0
  9
$CAMERAHEIGHT
 40
0.0
  9
$STEPSPERSEC
 40
24.0
  9
$STEPSIZE
 40
100.0
  9
$3DDWFPREC
 40
2.0
  9
$PSOLWIDTH
 40
0.005
  9
$PSOLHEIGHT
 40
0.08
  9
$LOFTANG1
 40
1.570796326795
  9
$LOFTANG2
 40
1.570796326795
  9
$LOFTMAG1
 40
0.0
  9
$LOFTMAG2
 40
0.0
  9
$LOFTPARAM
 70
7
  9
$LOFTNORMALS
280
1
  9
$LATITUDE
 40
37.795
  9
$LONGITUDE
 40
-122.394
  9
$NORTHDIRECTION
 40
0.0
  9
$TIMEZONE
 70
-8000
  9
$LIGHTGLYPHDISPLAY
280
1
  9
$TILEMODELIGHTSYNCH
280
1
  9
$CMATERIAL
347
20
  9
$SOLIDHIST
280
0
  9
$SHOWHIST
280
1
  9
$DWFFRAME
280
2
  9
$DGNFRAME
280
2
  9
$REALWORLDSCALE
290
1
  9
$INTERFERECOLOR
 62
256
  9
$CSHADOW
280
0
  9
$SHADOWPLANELOCATION
 40
0.0
  0
ENDSEC
  0
SECTION
  2
CLASSES
  0
CLASS
  1
ACDBDICTIONARYWDFLT
  2
AcDbDictionaryWithDefault
  3
ObjectDBX Classes
 90
0
 91
0
280
0
281
0
  0
CLASS
  1
SUN
  2
AcDbSun
  3
SCENEOE
 90
1153
 91
0
280
0
281
0
  0
CLASS
  1
VISUALSTYLE
  2
AcDbVisualStyle
  3
ObjectDBX Classes
 90
4095
 91
0
280
0
281
0
  0
CLASS
  1
MATERIAL
  2
AcDbMaterial
  3
ObjectDBX Classes
 90
1153
 91
0
280
0
281
0
  0
CLASS
  1
SCALE
  2
AcDbScale
  3
ObjectDBX Classes
 90
1153
 91
0
280
0
281
0
  0
CLASS
  1
TABLESTYLE
  2
AcDbTableStyle
  3
ObjectDBX Classes
 90
4095
 91
0
280
0
281
0
  0
CLASS
  1
MLEADERSTYLE
  2
AcDbMLeaderStyle
  3
ACDB_MLEADERSTYLE_CLASS
 90
4095
 91
0
280
0
281
0
  0
CLASS
  1
DICTIONARYVAR
  2
AcDbDictionaryVar
  3
ObjectDBX Classes
 90
0
 91
0
280
0
281
0
  0
CLASS
  1
CELLSTYLEMAP
  2
AcDbCellStyleMap
  3
ObjectDBX Classes
 90
1152
 91
0
280
0
281
0
  0
CLASS
  1
MENTALRAYRENDERSETTINGS
  2
AcDbMentalRayRenderSettings
  3
SCENEOE
 90
1024
 91
0
280
0
281
0
  0
CLASS
  1
ACDBDETAILVIEWSTYLE
  2
AcDbDetailViewStyle
  3
ObjectDBX Classes
 90
1025
 91
0
280
0
281
0
  0
CLASS
  1
ACDBSECTIONVIEWSTYLE
  2
AcDbSectionViewStyle
  3
ObjectDBX Classes
 90
1025
 91
0
280
0
281
0
  0
CLASS
  1
RASTERVARIABLES
  2
AcDbRasterVariables
  3
ISM
 90
0
 91
0
280
0
281
0
  0
CLASS
  1
ACDBPLACEHOLDER
  2
AcDbPlaceHolder
  3
ObjectDBX Classes
 90
0
 91
0
280
0
281
0
  0
CLASS
  1
LAYOUT
  2
AcDbLayout
  3
ObjectDBX Classes
 90
0
 91
0
280
0
281
0
  0
ENDSEC
  0
SECTION
  2
TABLES
  0
TABLE
  2
VPORT
  5
8
330
0
100
AcDbSymbolTable
 70
1
  0
VPORT
  5
23
330
8
100
AcDbSymbolTableRecord
100
AcDbViewportTableRecord
  2
*Active
 70
0
 10
0.0
 20
0.0
 11
1.0
 21
1.0
 12
0.0
 22
0.0
 13
0.0
 23
0.0
 14
0.5
 24
0.5
 15
0.5
 25
0.5
 16
0.0
 26
0.0
 36
1.0
 17
0.0
 27
0.0
 37
0.0
 40
1000.0
 41
1.34
 42
50.0
 43
0.0
 44
0.0
 50
0.0
 51
0.0
 71
0
 72
1000
 73
1
 74
3
 75
0
 76
0
 77
0
 78
0
281
0
 65
0
146
0.0
  0
ENDTAB
  0
TABLE
  2
LTYPE
  5
2
330
0
100
AcDbSymbolTable
 70
21
  0
LTYPE
  5
24
330
2
100
AcDbSymbolTableRecord
100
AcDbLinetypeTableRecord
  2
ByBlock
 70
0
  3

 72
65
 73
0
 40
0.0
  0
LTYPE
  5
25
330
2
100
AcDbSymbolTableRecord
100
AcDbLinetypeTableRecord
  2
ByLayer
 70
0
  3

 72
65
 73
0
 40
0.0
  0
LTYPE
  5
26
330
2
100
AcDbSymbolTableRecord
100
AcDbLinetypeTableRecord
  2
Continuous
 70
0
  3

 72
65
 73
0
 40
0.0
  0
LTYPE
  5
2F
330
2
100
AcDbSymbolTableRecord
100
AcDbLinetypeTableRecord
  2
CENTER
 70
0
  3
Center ____ _ ____ _ ____ _ ____ _ ____ _ ____
 72
65
 73
4
 40
5.08
 49
3.175
 74
0
 49
-0.635
 74
0
 49
0.635
 74
0
 49
-0.635
 74
0
  0
LTYPE
  5
30
330
2
100
AcDbSymbolTableRecord
100
AcDbLinetypeTableRecord
  2
CENTERX2
 70
0
  3
Center (2x) ________  __  ________  __  ________
 72
65
 73
4
 40
8.89
 49
6.35
 74
0
 49
-0.635
 74
0
 49
1.27
 74
0
 49
-0.635
 74
0
  0
LTYPE
  5
31
330
2
100
AcDbSymbolTableRecord
100
AcDbLinetypeTableRecord
  2
CENTER2
 70
0
  3
Center (.5x) ____ _ ____ _ ____ _ ____ _ ____
 72
65
 73
4
 40
2.54
 49
1.587
 74
0
 49
-0.318
 74
0
 49
0.318
 74
0
 49
-0.318
 74
0
  0
LTYPE
  5
32
330
2
100
AcDbSymbolTableRecord
100
AcDbLinetypeTableRecord
  2
DASHED
 70
0
  3
Dashed __ __ __ __ __ __ __ __ __ __ __ __ __ _
 72
65
 73
2
 40
1.524
 49
1.27
 74
0
 49
-0.254
 74
0
  0
LTYPE
  5
33
330
2
100
AcDbSymbolTableRecord
100
AcDbLinetypeTableRecord
  2
DASHEDX2
 70
0
  3
Dashed (2x) ____  ____  ____  ____  ____  ____
 72
65
 73
2
 40
3.048
 49
2.54
 74
0
 49
-0.508
 74
0
  0
LTYPE
  5
34
330
2
100
AcDbSymbolTableRecord
100
AcDbLinetypeTableRecord
  2
DASHED2
 70
0
  3
Dashed (.5x) _ _ _ _ _ _ _ _ _ _ _ _ _ _
 72
65
 73
2
 40
0.762
 49
0.635
 74
0
 49
-0.127
 74
0
  0
LTYPE
  5
35
330
2
100
AcDbSymbolTableRecord
100
AcDbLinetypeTableRecord
  2
PHANTOM
 70
0
  3
Phantom ______  __  __  ______  __  __  ______
 72
65
 73
6
 40
6.35
 49
3.175
 74
0
 49
-0.635
 74
0
 49
0.635
 74
0
 49
-0.635
 74
0
 49
0.635
 74
0
 49
-0.635
 74
0
  0
LTYPE
  5
36
330
2
100
AcDbSymbolTableRecord
100
AcDbLinetypeTableRecord
  2
PHANTOMX2
 70
0
  3
Phantom (2x)____________    ____    ____    ____________
 72
65
 73
6
 40
10.795
 49
6.35
 74
0
 49
-0.635
 74
0
 49
1.27
 74
0
 49
-0.635
 74
0
 49
1.27
 74
0
 49
-0.635
 74
0
  0
LTYPE
  5
37
330
2
100
AcDbSymbolTableRecord
100
AcDbLinetypeTableRecord
  2
PHANTOM2
 70
0
  3
Phantom (.5x) ___ _ _ ___ _ _ ___ _ _ ___ _ _ ___
 72
65
 73
6
 40
3.175
 49
1.587
 74
0
 49
-0.318
 74
0
 49
0.318
 74
0
 49
-0.318
 74
0
 49
0.318
 74
0
 49
-0.318
 74
0
  0
LTYPE
  5
38
330
2
100
AcDbSymbolTableRecord
100
AcDbLinetypeTableRecord
  2
DASHDOT
 70
0
  3
Dash dot __ . __ . __ . __ . __ . __ . __ . __
 72
65
 73
4
 40
3.556
 49
2.54
 74
0
 49
-0.508
 74
0
 49
0.0
 74
0
 49
-0.508
 74
0
  0
LTYPE
  5
39
330
2
100
AcDbSymbolTableRecord
100
AcDbLinetypeTableRecord
  2
DASHDOTX2
 70
0
  3
Dash dot (2x) ____  .  ____  .  ____  .  ____
 72
65
 73
4
 40
6.096
 49
5.08
 74
0
 49
-0.508
 74
0
 49
0.0
 74
0
 49
-0.508
 74
0
  0
LTYPE
  5
3A
330
2
100
AcDbSymbolTableRecord
100
AcDbLinetypeTableRecord
  2
DASHDOT2
 70
0
  3
Dash dot (.5x) _ . _ . _ . _ . _ . _ . _ . _
 72
65
 73
4
 40
1.778
 49
1.27
 74
0
 49
-0.254
 74
0
 49
0.0
 74
0
 49
-0.254
 74
0
  0
LTYPE
  5
3B
330
2
100
AcDbSymbolTableRecord
100
AcDbLinetypeTableRecord
  2
DOT
 70
0
  3
Dot .  .  .  .  .  .  .  .  .  .  .  .  .  .  .  .
 72
65
 73
2
 40
0.508
 49
0.0
 74
0
 49
-0.508
 74
0
  0
LTYPE
  5
3C
330
2
100
AcDbSymbolTableRecord
100
AcDbLinetypeTableRecord
  2
DOTX2
 70
0
  3
Dot (2x) .    .    .    .    .    .    .    . 
 72
65
 73
2
 40
1.016
 49
0.0
 74
0
 49
-1.016
 74
0
  0
LTYPE
  5
3D
330
2
100
AcDbSymbolTableRecord
100
AcDbLinetypeTableRecord
  2
DOT2
 70
0
  3
Dot (.5) . . . . . . . . . . . . . . . . . . . 
 72
65
 73
2
 40
0.254
 49
0.0
 74
0
 49
-0.254
 74
0
  0
LTYPE
  5
3E
330
2
100
AcDbSymbolTableRecord
100
AcDbLinetypeTableRecord
  2
DIVIDE
 70
0
  3
Divide __ . . __ . . __ . . __ . . __ . . __
 72
65
 73
6
 40
4.064
 49
2.54
 74
0
 49
-0.508
 74
0
 49
0.0
 74
0
 49
-0.508
 74
0
 49
0.0
 74
0
 49
-0.508
 74
0
  0
LTYPE
  5
3F
330
2
100
AcDbSymbolTableRecord
100
AcDbLinetypeTableRecord
  2
DIVIDEX2
 70
0
  3
Divide (2x) ____  . .  ____  . .  ____  . .  ____
 72
65
 73
6
 40
6.604
 49
5.08
 74
0
 49
-0.508
 74
0
 49
0.0
 74
0
 49
-0.508
 74
0
 49
0.0
 74
0
 49
-0.508
 74
0
  0
LTYPE
  5
40
330
2
100
AcDbSymbolTableRecord
100
AcDbLinetypeTableRecord
  2
DIVIDE2
 70
0
  3
Divide(.5x) _ . _ . _ . _ . _ . _ . _ . _
 72
65
 73
6
 40
2.032
 49
1.27
 74
0
 49
-0.254
 74
0
 49
0.0
 74
0
 49
-0.254
 74
0
 49
0.0
 74
0
 49
-0.254
 74
0
  0
ENDTAB
  0
TABLE
  2
LAYER
  5
1
330
0
100
AcDbSymbolTable
 70
8
  0
LAYER
  5
27
330
1
100
AcDbSymbolTableRecord
100
AcDbLayerTableRecord
  2
0
 70
0
 62
7
  6
Continuous
370
-3
390
13
347
21
  0
LAYER
  5
28
330
1
100
AcDbSymbolTableRecord
100
AcDbLayerTableRecord
  2
Defpoints
 70
0
 62
7
  6
Continuous
290
0
370
-3
390
13
347
21
  0
LAYER
  5
8A
330
1
100
AcDbSymbolTableRecord
100
AcDbLayerTableRecord
  2
OUTER
 70
0
 62
1
  6
Continuous
370
50
390
13
347
21
  0
LAYER
  5
8B
330
1
100
AcDbSymbolTableRecord
100
AcDbLayerTableRecord
  2
INNER
 70
0
 62
3
  6
Continuous
370
30
390
13
347
21
  0
LAYER
  5
8C
330
1
100
AcDbSymbolTableRecord
100
AcDbLayerTableRecord
  2
BEND_UP
 70
0
 62
5
  6
DASHED2
370
15
390
13
347
21
  0
LAYER
  5
8D
330
1
100
AcDbSymbolTableRecord
100
AcDbLayerTableRecord
  2
BEND_DOWN
 70
0
 62
4
  6
DASHED2
370
15
390
13
347
21
  0
LAYER
  5
8E
330
1
100
AcDbSymbolTableRecord
100
AcDbLayerTableRecord
  2
ANNOTATION
 70
0
 62
7
  6
Continuous
370
13
390
13
347
21
  0
LAYER
  5
8F
330
1
100
AcDbSymbolTableRecord
100
AcDbLayerTableRecord
  2
INFO
 70
0
 62
7
  6
Continuous
370
13
390
13
347
21
  0
ENDTAB
  0
TABLE
  2
STYLE
  5
5
330
0
100
AcDbSymbolTable
 70
26
  0
STYLE
  5
29
330
5
100
AcDbSymbolTableRecord
100
AcDbTextStyleTableRecord
  2
Standard
 70
0
 40
0.0
 41
1.0
 50
0.0
 71
0
 42
2.5
  3
txt
  4

  0
STYLE
  5
41
330
5
100
AcDbSymbolTableRecord
100
AcDbTextStyleTableRecord
  2
OpenSans-Light
 70
0
 40
0.0
 41
1.0
 50
0.0
 71
0
 42
2.5
  3
OpenSans-Light.ttf
  4

  0
STYLE
  5
42
330
5
100
AcDbSymbolTableRecord
100
AcDbTextStyleTableRecord
  2
OpenSans-Light-Italic
 70
0
 40
0.0
 41
1.0
 50
0.0
 71
0
 42
2.5
  3
OpenSans-LightItalic.ttf
  4

  0
STYLE
  5
43
330
5
100
AcDbSymbolTableRecord
100
AcDbTextStyleTableRecord
  2
OpenSans
 70
0
 40
0.0
 41
1.0
 50
0.0
 71
0
 42
2.5
  3
OpenSans-Regular.ttf
  4

  0
STYLE
  5
44
330
5
100
AcDbSymbolTableRecord
100
AcDbTextStyleTableRecord
  2
OpenSans-Italic
 70
0
 40
0.0
 41
1.0
 50
0.0
 71
0
 42
2.5
  3
OpenSans-Italic.ttf
  4

  0
STYLE
  5
45
330
5
100
AcDbSymbolTableRecord
100
AcDbTextStyleTableRecord
  2
OpenSans-SemiBold
 70
0
 40
0.0
 41
1.0
 50
0.0
 71
0
 42
2.5
  3
OpenSans-SemiBold.ttf
  4

  0
STYLE
  5
46
330
5
100
AcDbSymbolTableRecord
100
AcDbTextStyleTableRecord
  2
OpenSans-SemiBoldItalic
 70
0
 40
0.0
 41
1.0
 50
0.0
 71
0
 42
2.5
  3
OpenSans-SemiBoldItalic.ttf
  4

  0
STYLE
  5
47
330
5
100
AcDbSymbolTableRecord
100
AcDbTextStyleTableRecord
  2
OpenSans-Bold
 70
0
 40
0.0
 41
1.0
 50
0.0
 71
0
 42
2.5
  3
OpenSans-Bold.ttf
  4

  0
STYLE
  5
48
330
5
100
AcDbSymbolTableRecord
100
AcDbTextStyleTableRecord
  2
OpenSans-BoldItalic
 70
0
 40
0.0
 41
1.0
 50
0.0
 71
0
 42
2.5
  3
OpenSans-BoldItalic.ttf
  4

  0
STYLE
  5
49
330
5
100
AcDbSymbolTableRecord
100
AcDbTextStyleTableRecord
  2
OpenSans-ExtraBold
 70
0
 40
0.0
 41
1.0
 50
0.0
 71
0
 42
2.5
  3
OpenSans-ExtraBold.ttf
  4

  0
STYLE
  5
4A
330
5
100
AcDbSymbolTableRecord
100
AcDbTextStyleTableRecord
  2
OpenSans-ExtraBoldItalic
 70
0
 40
0.0
 41
1.0
 50
0.0
 71
0
 42
2.5
  3
OpenSans-ExtraBoldItalic.ttf
  4

  0
STYLE
  5
4B
330
5
100
AcDbSymbolTableRecord
100
AcDbTextStyleTableRecord
  2
OpenSansCondensed-Bold
 70
0
 40
0.0
 41
1.0
 50
0.0
 71
0
 42
2.5
  3
OpenSansCondensed-Bold.ttf
  4

  0
STYLE
  5
4C
330
5
100
AcDbSymbolTableRecord
100
AcDbTextStyleTableRecord
  2
OpenSansCondensed-Light
 70
0
 40
0.0
 41
1.0
 50
0.0
 71
0
 42
2.5
  3
OpenSansCondensed-Light.ttf
  4

  0
STYLE
  5
4D
330
5
100
AcDbSymbolTableRecord
100
AcDbTextStyleTableRecord
  2
OpenSansCondensed-Italic
 70
0
 40
0.0
 41
1.0
 50
0.0
 71
0
 42
2.5
  3
OpenSansCondensed-LightItalic.ttf
  4

  0
STYLE
  5
4E
330
5
100
AcDbSymbolTableRecord
100
AcDbTextStyleTableRecord
  2
LiberationSans
 70
0
 40
0.0
 41
1.0
 50
0.0
 71
0
 42
2.5
  3
LiberationSans-Regular.ttf
  4

  0
STYLE
  5
4F
330
5
100
AcDbSymbolTableRecord
100
AcDbTextStyleTableRecord
  2
LiberationSans-Bold
 70
0
 40
0.0
 41
1.0
 50
0.0
 71
0
 42
2.5
  3
LiberationSans-Bold.ttf
  4

  0
STYLE
  5
50
330
5
100
AcDbSymbolTableRecord
100
AcDbTextStyleTableRecord
  2
LiberationSans-BoldItalic
 70
0
 40
0.0
 41
1.0
 50
0.0
 71
0
 42
2.5
  3
LiberationSans-BoldItalic.ttf
  4

  0
STYLE
  5
51
330
5
100
AcDbSymbolTableRecord
100
AcDbTextStyleTableRecord
  2
LiberationSans-Italic
 70
0
 40
0.0
 41
1.0
 50
0.0
 71
0
 42
2.5
  3
LiberationSans-Italic.ttf
  4

  0
STYLE
  5
52
330
5
100
AcDbSymbolTableRecord
100
AcDbTextStyleTableRecord
  2
LiberationSerif
 70
0
 40
0.0
 41
1.0
 50
0.0
 71
0
 42
2.5
  3
LiberationSerif-Regular.ttf
  4

  0
STYLE
  5
53
330
5
100
AcDbSymbolTableRecord
100
AcDbTextStyleTableRecord
  2
LiberationSerif-Bold
 70
0
 40
0.0
 41
1.0
 50
0.0
 71
0
 42
2.5
  3
LiberationSerif-Bold.ttf
  4

  0
STYLE
  5
54
330
5
100
AcDbSymbolTableRecord
100
AcDbTextStyleTableRecord
  2
LiberationSerif-BoldItalic
 70
0
 40
0.0
 41
1.0
 50
0.0
 71
0
 42
2.5
  3
LiberationSerif-BoldItalic.ttf
  4

  0
STYLE
  5
55
330
5
100
AcDbSymbolTableRecord
100
AcDbTextStyleTableRecord
  2
LiberationSerif-Italic
 70
0
 40
0.0
 41
1.0
 50
0.0
 71
0
 42
2.5
  3
LiberationSerif-Italic.ttf
  4

  0
STYLE
  5
56
330
5
100
AcDbSymbolTableRecord
100
AcDbTextStyleTableRecord
  2
LiberationMono
 70
0
 40
0.0
 41
1.0
 50
0.0
 71
0
 42
2.5
  3
LiberationMono-Regular.ttf
  4

  0
STYLE
  5
57
330
5
100
AcDbSymbolTableRecord
100
AcDbTextStyleTableRecord
  2
LiberationMono-Bold
 70
0
 40
0.0
 41
1.0
 50
0.0
 71
0
 42
2.5
  3
LiberationMono-Bold.ttf
  4

  0
STYLE
  5
58
330
5
100
AcDbSymbolTableRecord
100
AcDbTextStyleTableRecord
  2
LiberationMono-BoldItalic
 70
0
 40
0.0
 41
1.0
 50
0.0
 71
0
 42
2.5
  3
LiberationMono-BoldItalic.ttf
  4

  0
STYLE
  5
59
330
5
100
AcDbSymbolTableRecord
100
AcDbTextStyleTableRecord
  2
LiberationMono-Italic
 70
0
 40
0.0
 41
1.0
 50
0.0
 71
0
 42
2.5
  3
LiberationMono-Italic.ttf
  4

  0
ENDTAB
  0
TABLE
  2
VIEW
  5
7
330
0
100
AcDbSymbolTable
 70
0
  0
ENDTAB
  0
TABLE
  2
UCS
  5
6
330
0
100
AcDbSymbolTable
 70
0
  0
ENDTAB
  0
TABLE
  2
APPID
  5
3
330
0
100
AcDbSymbolTable
 70
3
  0
APPID
  5
2A
330
3
100
AcDbSymbolTableRecord
100
AcDbRegAppTableRecord
  2
ACAD
 70
0
  0
APPID
  5
B7
330
3
100
AcDbSymbolTableRecord
100
AcDbRegAppTableRecord
  2
HATCHBACKGROUNDCOLOR
 70
0
  0
APPID
  5
B8
330
3
100
AcDbSymbolTableRecord
100
AcDbRegAppTableRecord
  2
EZDXF
 70
0
  0
ENDTAB
  0
TABLE
  2
DIMSTYLE
  5
4
330
0
100
AcDbSymbolTable
 70
12
100
AcDbDimStyleTable
  0
DIMSTYLE
105
2B
330
4
100
AcDbSymbolTableRecord
100
AcDbDimStyleTableRecord
  2
Standard
 70
0
 40
1.0
 41
2.5
 42
0.625
 43
3.75
 44
1.25
 45
0.0
 46
0.0
 47
0.0
 48
0.0
 49
2.5
140
2.5
141
2.5
142
0.0
143
0.03937007874
144
1.0
145
0.0
146
1.0
147
0.625
148
0.0
 69
0
 70
0
 71
0
 72
0
 73
0
 74
0
 75
0
 76
0
 77
1
 78
8
 79
3
170
0
171
3
172
1
173
0
174
0
175
0
176
0
177
0
178
0
179
2
271
2
272
2
273
2
274
3
275
0
276
0
277
2
278
44
279
0
280
0
281
0
282
0
283
0
284
8
285
0
286
0
288
0
289
3
290
0
371
-2
372
-2
  0
DIMSTYLE
105
73
330
4
100
AcDbSymbolTableRecord
100
AcDbDimStyleTableRecord
  2
EZDXF
 70
0
 40
1.0
 41
0.175
 42
0.125
 43
3.75
 44
0.375
 45
0.0
 46
0.0
 47
0.0
 48
0.0
 49
2.5
140
0.25
141
2.5
142
0.0
143
0.03937007874
144
100.0
145
0.0
146
0.5
147
0.1
148
0.0
 69
0
 70
0
 71
0
 72
0
 73
0
 74
0
 75
0
 76
0
 77
1
 78
12
 79
3
170
0
171
3
172
1
173
0
174
0
175
0
176
0
177
0
178
0
179
2
271
2
272
2
273
2
274
3
275
0
276
0
277
2
278
46
279
2
280
0
281
0
282
0
283
0
284
8
285
0
286
0
288
1
289
3
290
0
340
4C
342
74
371
-2
372
-2
  0
DIMSTYLE
105
7C
330
4
100
AcDbSymbolTableRecord
100
AcDbDimStyleTableRecord
  2
EZ_M_100_H25_CM
 70
0
 40
1.0
 41
0.25
 42
0.125
 43
3.75
 44
0.375
 45
0.0
 46
0.0
 47
0.0
 48
0.0
 49
2.5
140
0.25
141
2.5
142
0.125
143
0.03937007874
144
100.0
145
0.0
146
0.5
147
0.1
148
0.0
 69
0
 70
0
 71
0
 72
0
 73
0
 74
0
 75
0
 76
0
 77
1
 78
12
 79
3
170
0
171
3
172
1
173
0
174
0
175
0
176
0
177
0
178
0
179
2
271
2
272
2
273
2
274
3
275
0
276
0
277
2
278
46
279
2
280
0
281
0
282
0
283
0
284
8
285
0
286
0
288
1
289
3
290
0
340
4C
371
-2
372
-2
  0
DIMSTYLE
105
7D
330
4
100
AcDbSymbolTableRecord
100
AcDbDimStyleTableRecord
  2
EZ_M_50_H25_CM
 70
0
 40
1.0
 41
0.125
 42
0.0625
 43
3.75
 44
0.1875
 45
0.0
 46
0.0
 47
0.0
 48
0.0
 49
2.5
140
0.125
141
2.5
142
0.0625
143
0.03937007874
144
100.0
145
0.0
146
0.5
147
0.05
148
0.0
 69
0
 70
0
 71
0
 72
0
 73
0
 74
0
 75
0
 76
0
 77
1
 78
12
 79
3
170
0
171
3
172
1
173
0
174
0
175
0
176
0
177
0
178
0
179
2
271
2
272
2
273
2
274
3
275
0
276
0
277
2
278
46
279
2
280
0
281
0
282
0
283
0
284
8
285
0
286
0
288
1
289
3
290
0
340
4C
371
-2
372
-2
  0
DIMSTYLE
105
7E
330
4
100
AcDbSymbolTableRecord
100
AcDbDimStyleTableRecord
  2
EZ_M_25_H25_CM
 70
0
 40
1.0
 41
0.0625
 42
0.03125
 43
3.75
 44
0.09375
 45
0.0
 46
0.0
 47
0.0
 48
0.0
 49
2.5
140
0.0625
141
2.5
142
0.03125
143
0.03937007874
144
100.0
145
0.0
146
0.5
147
0.025
148
0.0
 69
0
 70
0
 71
0
 72
0
 73
0
 74
0
 75
0
 76
0
 77
1
 78
12
 79
3
170
0
171
3
172
1
173
0
174
0
175
0
176
0
177
0
178
0
179
2
271
2
272
2
273
2
274
3
275
0
276
0
277
2
278
46
279
2
280
0
281
0
282
0
283
0
284
8
285
0
286
0
288
1
289
3
290
0
340
4C
371
-2
372
-2
  0
DIMSTYLE
105
7F
330
4
100
AcDbSymbolTableRecord
100
AcDbDimStyleTableRecord
  2
EZ_M_20_H25_CM
 70
0
 40
1.0
 41
0.05
 42
0.025
 43
3.75
 44
0.07500000000000001
 45
0.0
 46
0.0
 47
0.0
 48
0.0
 49
2.5
140
0.05
141
2.5
142
0.025
143
0.03937007874
144
100.0
145
0.0
146
0.5
147
0.020000000000000004
148
0.0
 69
0
 70
0
 71
0
 72
0
 73
0
 74
0
 75
0
 76
0
 77
1
 78
12
 79
3
170
0
171
3
172
1
173
0
174
0
175
0
176
0
177
0
178
0
179
2
271
2
272
2
273
2
274
3
275
0
276
0
277
2
278
46
279
2
280
0
281
0
282
0
283
0
284
8
285
0
286
0
288
1
289
3
290
0
340
4C
371
-2
372
-2
  0
DIMSTYLE
105
80
330
4
100
AcDbSymbolTableRecord
100
AcDbDimStyleTableRecord
  2
EZ_M_10_H25_CM
 70
0
 40
1.0
 41
0.025
 42
0.0125
 43
3.75
 44
0.037500000000000006
 45
0.0
 46
0.0
 47
0.0
 48
0.0
 49
2.5
140
0.025
141
2.5
142
0.0125
143
0.03937007874
144
100.0
145
0.0
146
0.5
147
0.010000000000000002
148
0.0
 69
0
 70
0
 71
0
 72
0
 73
0
 74
0
 75
0
 76
0
 77
1
 78
12
 79
3
170
0
171
3
172
1
173
0
174
0
175
0
176
0
177
0
178
0
179
2
271
2
272
2
273
2
274
3
275
0
276
0
277
2
278
46
279
2
280
0
281
0
282
0
283
0
284
8
285
0
286
0
288
1
289
3
290
0
340
4C
371
-2
372
-2
  0
DIMSTYLE
105
81
330
4
100
AcDbSymbolTableRecord
100
AcDbDimStyleTableRecord
  2
EZ_M_5_H25_CM
 70
0
 40
1.0
 41
0.0125
 42
0.00625
 43
3.75
 44
0.018750000000000003
 45
0.0
 46
0.0
 47
0.0
 48
0.0
 49
2.5
140
0.0125
141
2.5
142
0.00625
143
0.03937007874
144
100.0
145
0.0
146
0.5
147
0.005000000000000001
148
0.0
 69
0
 70
0
 71
0
 72
0
 73
0
 74
0
 75
0
 76
0
 77
1
 78
12
 79
3
170
0
171
3
172
1
173
0
174
0
175
0
176
0
177
0
178
0
179
2
271
2
272
2
273
2
274
3
275
0
276
0
277
2
278
46
279
2
280
0
281
0
282
0
283
0
284
8
285
0
286
0
288
1
289
3
290
0
340
4C
371
-2
372
-2
  0
DIMSTYLE
105
82
330
4
100
AcDbSymbolTableRecord
100
AcDbDimStyleTableRecord
  2
EZ_M_1_H25_CM
 70
0
 40
1.0
 41
0.0025
 42
0.00125
 43
3.75
 44
0.00375
 45
0.0
 46
0.0
 47
0.0
 48
0.0
 49
2.5
140
0.0025
141
2.5
142
0.00125
143
0.03937007874
144
100.0
145
0.0
146
0.5
147
0.001
148
0.0
 69
0
 70
0
 71
0
 72
0
 73
0
 74
0
 75
0
 76
0
 77
1
 78
12
 79
3
170
0
171
3
172
1
173
0
174
0
175
0
176
0
177
0
178
0
179
2
271
2
272
2
273
2
274
3
275
0
276
0
277
2
278
46
279
2
280
0
281
0
282
0
283
0
284
8
285
0
286
0
288
1
289
3
290
0
340
4C
371
-2
372
-2
  0
DIMSTYLE
105
83
330
4
100
AcDbSymbolTableRecord
100
AcDbDimStyleTableRecord
  2
EZ_RADIUS
 70
0
 40
1.0
 41
0.25
 42
0.125
 43
3.75
 44
0.375
 45
0.0
 46
0.0
 47
0.0
 48
0.0
 49
2.5
140
0.25
141
0.0
142
0.0
143
0.03937007874
144
100.0
145
0.0
146
0.5
147
0.1
148
0.0
 69
0
 70
0
 71
0
 72
0
 73
0
 74
0
 75
0
 76
0
 77
1
 78
12
 79
3
170
0
171
3
172
0
173
0
174
0
175
0
176
0
177
0
178
0
179
2
271
2
272
2
273
2
274
3
275
0
276
0
277
2
278
46
279
1
280
0
281
0
282
0
283
0
284
8
285
0
286
0
288
1
289
3
290
0
340
4C
342
84
371
-2
372
-2
  0
DIMSTYLE
105
88
330
4
100
AcDbSymbolTableRecord
100
AcDbDimStyleTableRecord
  2
EZ_RADIUS_INSIDE
 70
0
 40
1.0
 41
0.25
 42
0.125
 43
3.75
 44
0.375
 45
0.0
 46
0.0
 47
0.0
 48
0.0
 49
2.5
140
0.25
141
0.0
142
0.0
143
0.03937007874
144
100.0
145
0.0
146
0.5
147
0.1
148
0.0
 69
0
 70
0
 71
0
 72
0
 73
0
 74
0
 75
0
 76
0
 77
0
 78
12
 79
3
170
0
171
3
172
0
173
0
174
1
175
0
176
0
177
0
178
0
179
2
271
2
272
2
273
2
274
3
275
0
276
0
277
2
278
46
279
0
280
0
281
0
282
0
283
0
284
8
285
0
286
0
288
1
289
0
290
0
340
4C
342
84
371
-2
372
-2
  0
DIMSTYLE
105
89
330
4
100
AcDbSymbolTableRecord
100
AcDbDimStyleTableRecord
  2
EZ_CURVED
 70
0
 40
1.0
 41
0.25
 42
0.125
 43
3.75
 44
0.375
 45
0.0
 46
0.0
 47
0.0
 48
0.0
 49
2.5
140
0.25
141
2.5
142
0.0
143
0.03937007874
144
100.0
145
0.0
146
0.5
147
0.1
148
0.0
 69
0
 70
0
 71
0
 72
0
 73
0
 74
0
 75
0
 76
0
 77
1
 78
12
 79
2
 90
2
170
0
171
3
172
1
173
0
174
0
175
0
176
0
177
0
178
0
179
2
271
2
272
2
273
2
274
3
275
0
276
0
277
2
278
46
279
2
280
0
281
0
282
0
283
0
284
8
285
0
286
0
288
1
289
3
290
0
340
4C
371
-2
372
-2
  0
ENDTAB
  0
TABLE
  2
BLOCK_RECORD
  5
9
330
0
100
AcDbSymbolTable
 70
5
  0
BLOCK_RECORD
  5
17
330
9
100
AcDbSymbolTableRecord
100
AcDbBlockTableRecord
  2
*Model_Space
340
1A
 70
0
280
1
281
0
  0
BLOCK_RECORD
  5
1B
330
9
100
AcDbSymbolTableRecord
100
AcDbBlockTableRecord
  2
*Paper_Space
340
1E
 70
0
280
1
281
0
  0
BLOCK_RECORD
  5
74
330
9
100
AcDbSymbolTableRecord
100
AcDbBlockTableRecord
  2
_ARCHTICK
340
0
 70
0
280
1
281
0
  0
BLOCK_RECORD
  5
78
330
9
100
AcDbSymbolTableRecord
100
AcDbBlockTableRecord
  2
_CLOSEDFILLED
340
0
 70
0
280
1
281
0
  0
BLOCK_RECORD
  5
84
330
9
100
AcDbSymbolTableRecord
100
AcDbBlockTableRecord
  2
_CLOSEDBLANK
340
0
 70
0
280
1
281
0
  0
ENDTAB
  0
ENDSEC
  0
SECTION
  2
BLOCKS
  0
BLOCK
  5
18
330
17
100
AcDbEntity
  8
0
100
AcDbBlockBegin
  2
*Model_Space
 70
0
 10
0.0
 20
0.0
 30
0.0
  3
*Model_Space
  1

  0
ENDBLK
  5
19
330
17
100
AcDbEntity
  8
0
100
AcDbBlockEnd
  0
BLOCK
  5
1C
330
1B
100
AcDbEntity
  8
0
100
AcDbBlockBegin
  2
*Paper_Space
 70
0
 10
0.0
 20
0.0
 30
0.0
  3
*Paper_Space
  1

  0
ENDBLK
  5
1D
330
1B
100
AcDbEntity
  8
0
100
AcDbBlockEnd
  0
BLOCK
  5
75
330
74
100
AcDbEntity
  8
0
100
AcDbBlockBegin
  2
_ARCHTICK
 70
0
 10
0.0
 20
0.0
 30
0.0
  3
_ARCHTICK
  1

  0
LWPOLYLINE
  5
77
330
74
100
AcDbEntity
  8
0
  6
BYBLOCK
 62
0
100
AcDbPolyline
 90
2
 70
0
 43
0.15
 10
-0.5
 20
-0.5
 10
0.5
 20
0.5
  0
ENDBLK
  5
76
330
74
100
AcDbEntity
  8
0
100
AcDbBlockEnd
  0
BLOCK
  5
79
330
78
100
AcDbEntity
  8
0
100
AcDbBlockBegin
  2
_CLOSEDFILLED
 70
0
 10
0.0
 20
0.0
 30
0.0
  3
_CLOSEDFILLED
  1

  0
SOLID
  5
7B
330
78
100
AcDbEntity
  8
0
  6
BYBLOCK
 62
0
100
AcDbTrace
 10
-1.0
 20
0.16439898372402537
 30
0.0
 11
0.0
 21
0.0
 31
0.0
 12
-1.0
 22
-0.16439898372402537
 32
0.0
 13
-1.0
 23
-0.16439898372402537
 33
0.0
  0
ENDBLK
  5
7A
330
78
100
AcDbEntity
  8
0
100
AcDbBlockEnd
  0
BLOCK
  5
85
330
84
100
AcDbEntity
  8
0
100
AcDbBlockBegin
  2
_CLOSEDBLANK
 70
0
 10
0.0
 20
0.0
 30
0.0
  3
_CLOSEDBLANK
  1

  0
LWPOLYLINE
  5
87
330
84
100
AcDbEntity
  8
0
  6
BYBLOCK
 62
0
100
AcDbPolyline
 90
3
 70
1
 10
-1.0
 20
0.16439898372402537
 10
0.0
 20
0.0
 10
-1.0
 20
-0.16439898372402537
  0
ENDBLK
  5
86
330
84
100
AcDbEntity
  8
0
100
AcDbBlockEnd
  0
ENDSEC
  0
SECTION
  2
ENTITIES
  0
LWPOLYLINE
  5
90
330
17
100
AcDbEntity
  8
OUTER
100
AcDbPolyline
 90
132
 70
1
 10
-53.29646280723136
 20
-688.7658323737875
 10
-54.918579551338645
 20
-689.8496961304112
 10
-56.002443307962345
 20
-691.4718128745184
 10
-56.38304564540591
 20
-693.3852300363438
 10
-56.38304564540591
 20
-713.3852300363438
 10
-56.002443307962345
 20
-715.2986471981693
 10
-54.918579551338645
 20
-716.9207639422765
 10
-53.29646280723136
 20
-718.0046276989002
 10
-51.38304564540591
 20
-718.3852300363438
 10
-51.38304564540591
 20
-953.3852300363438
 10
-101.38304564540591
 20
-953.3852300363438
 10
-101.38304564540591
 20
949.6147699636562
 10
-51.38304564540591
 20
949.6147699636562
 10
-51.38304564540591
 20
-438.38523003634384
 10
-53.29646280723136
 20
-438.7658323737875
 10
-54.918579551338645
 20
-439.8496961304112
 10
-56.002443307962345
 20
-441.4718128745184
 10
-56.38304564540591
 20
-443.38523003634384
 10
-56.38304564540591
 20
-463.38523003634384
 10
-56.002443307962345
 20
-465.2986471981693
 10
-54.918579551338645
 20
-466.9207639422765
 10
-53.29646280723136
 20
-468.0046276989002
 10
-51.38304564540591
 20
-468.38523003634384
 10
-40.07331209248266
 20
-468.38523003634384
 10
-38.15989493065721
 20
-468.0046276989002
 10
-36.53777818654992
 20
-466.9207639422765
 10
-35.45391442992622
 20
-465.2986471981693
 10
-35.07331209248265
 20
-463.38523003634384
 10
-35.07331209248266
 20
-461.69185389926395
 10
-35.370612376852655
 20
-459.99343834804756
 10
-36.22715824632698
 20
-458.49699856737254
 10
-37.23423438567612
 20
-456.9519080300578
 10
-37.86071789754848
 20
-455.2172537335774
 10
-38.07331209248258
 20
-453.38523003634384
 10
-37.86071789754848
 20
-451.55320633911003
 10
-37.23423438567612
 20
-449.8185520426299
 10
-36.227158246327924
 20
-448.27346150531446
 10
-35.37061237685262
 20
-446.7770217246401
 10
-35.07331209248266
 20
-445.07860617342396
 10
-35.07331209248266
 20
-443.38523003634384
 10
-35.45391442992622
 20
-441.4718128745184
 10
-36.53777818654992
 20
-439.8496961304112
 10
-38.15989493065721
 20
-438.7658323737875
 10
-40.07331209248266
 20
-438.38523003634384
 10
-40.07331209248266
 20
949.6147699636562
 10
39.92668790751734
 20
949.6147699636562
 10
39.92668790751734
 20
112.11476996365616
 10
38.77863761042207
 20
111.88640856119002
 10
37.805367563957695
 20
111.23609030721582
 10
37.15504930998348
 20
110.26282026075148
 10
36.92668790751734
 20
109.11476996365616
 10
36.92668790751734
 20
107.08139951075111
 10
37.280936596452705
 20
105.66718594837812
 10
38.26002124085042
 20
104.5869612529018
 10
40.53313983925538
 20
102.7215214653985
 10
42.398643827364914
 20
100.44845555487973
 10
43.78484036331148
 20
97.85511930075756
 10
44.63845678207671
 20
95.04117673332132
 10
44.92668790751724
 20
92.11476996365616
 10
44.63845678207673
 20
89.18836319399111
 10
43.78484036331156
 20
86.37442062655498
 10
42.3986438273651
 20
83.78108437243282
 10
40.53313983925569
 20
81.50801846191416
 10
38.26002124085104
 20
79.64257867441063
 10
37.280936596452854
 20
78.56235397893442
 10
36.92668790751734
 20
77.14814041656109
 10
36.92668790751734
 20
71.73928546025422
 10
37.12979351194132
 20
70.65421323224564
 10
37.71160906751432
 20
69.71606383804601
 10
38.59335457418434
 20
69.05186621082112
 10
41.388905306769175
 20
67.25377515694174
 10
43.71983024098952
 20
64.88417090991516
 10
45.47167334473439
 20
62.05940878252136
 10
46.558413396302484
 20
58.91819382699623
 10
46.92668790751904
 20
55.61476996365616
 10
46.55841339630248
 20
52.31134610031609
 10
45.471673344734384
 20
49.17013114479096
 10
43.719830240989516
 20
46.34536901739716
 10
41.38890530676916
 20
43.975764770370574
 10
38.59335457418433
 20
42.1776737164912
 10
37.711609067514296
 20
41.51347608926642
 10
37.129793511941315
 20
40.57532669506679
 10
36.92668790751735
 20
39.49025446705821
 10
36.92668790751734
 20
38.61476996365616
 10
37.15504930998348
 20
37.466719666560834
 10
37.805367563957695
 20
36.4934496200965
 10
38.778637610422074
 20
35.84313136612229
 10
39.92668790751734
 20
35.61476996365616
 10
39.92668790751734
 20
35.61476996365593
 10
51.236421460440596
 20
35.61476996365593
 10
51.236421460440596
 20
35.61476996365616
 10
53.23642146044062
 20
35.61476996365616
 10
54.384471757535884
 20
35.84313136612229
 10
55.35774180400026
 20
36.4934496200965
 10
56.00806005797448
 20
37.466719666560834
 10
56.23642146044062
 20
38.61476996365616
 10
56.23642146044062
 20
109.11476996365616
 10
56.00806005797448
 20
110.26282026075137
 10
55.35774180400026
 20
111.23609030721582
 10
54.38447175753589
 20
111.88640856119002
 10
53.23642146044062
 20
112.11476996365616
 10
51.236421460440596
 20
112.11476996365616
 10
51.236421460440596
 20
949.6147699636562
 10
101.23642146044061
 20
949.6147699636562
 10
101.23642146044061
 20
-953.3852300363438
 10
51.236421460440596
 20
-953.3852300363438
 10
51.236421460440596
 20
-953.3852300363436
 10
39.92668790751734
 20
-953.3852300363436
 10
39.92668790751734
 20
-953.3852300363438
 10
-40.07331209248266
 20
-953.3852300363438
 10
-40.07331209248266
 20
-718.3852300363438
 10
-38.15989493065721
 20
-718.0046276989002
 10
-36.53777818654992
 20
-716.9207639422765
 10
-35.45391442992622
 20
-715.2986471981693
 10
-35.07331209248266
 20
-713.3852300363438
 10
-35.07331209248266
 20
-711.691853899264
 10
-35.370612376852655
 20
-709.9934383480476
 10
-36.2271582463271
 20
-708.4969985673725
 10
-37.23423438567626
 20
-706.951908030058
 10
-37.86071789754864
 20
-705.2172537335776
 10
-38.07331209248274
 20
-703.3852300363438
 10
-37.86071789754864
 20
-701.55320633911
 10
-37.23423438567626
 20
-699.8185520426297
 10
-36.227158246327924
 20
-698.2734615053145
 10
-35.37061237685262
 20
-696.7770217246401
 10
-35.07331209248267
 20
-695.078606173424
 10
-35.07331209248266
 20
-693.3852300363438
 10
-35.45391442992622
 20
-691.4718128745184
 10
-36.53777818654992
 20
-689.8496961304112
 10
-38.15989493065721
 20
-688.7658323737875
 10
-40.07331209248266
 20
-688.3852300363438
 10
-51.38304564540591
 20
-688.3852300363438
  0
LWPOLYLINE
  5
91
330
17
100
AcDbEntity
  8
INNER
100
AcDbPolyline
 90
12
 70
1
 10
-93.00304564540593
 20
-936.2201665268827
 10
-94.2530456454059
 20
-935.8852300363438
 10
-95.50304564540589
 20
-936.2201665268827
 10
-96.41810915486697
 20
-937.1352300363438
 10
-96.75304564540586
 20
-938.3852300363438
 10
-96.41810915486697
 20
-939.6352300363438
 10
-95.50304564540588
 20
-940.550293545805
 10
-94.2530456454059
 20
-940.8852300363438
 10
-93.00304564540593
 20
-940.550293545805
 10
-92.08798213594486
 20
-939.6352300363438
 10
-91.75304564540596
 20
-938.3852300363438
 10
-92.08798213594486
 20
-937.1352300363438
  0
LWPOLYLINE
  5
92
330
17
100
AcDbEntity
  8
INNER
100
AcDbPolyline
 90
14
 70
1
 10
-75.65985261004789
 20
-787.7167143217629
 10
-77.10623868076394
 20
-787.7167143217629
 10
-78.40938750144682
 20
-788.3442777183328
 10
-79.31119446608879
 20
-789.4751078842218
 10
-79.63304564540593
 20
-790.8852300363538
 10
-79.31119446608879
 20
-792.2953521884859
 10
-78.40938750144682
 20
-793.4261823543749
 10
-77.10623868076394
 20
-794.0537457509448
 10
-75.65985261004789
 20
-794.0537457509448
 10
-74.35670378936501
 20
-793.4261823543749
 10
-73.45489682472304
 20
-792.2953521884859
 10
-73.1330456454059
 20
-790.8852300363538
 10
-73.45489682472304
 20
-789.4751078842218
 10
-74.35670378936501
 20
-788.3442777183328
  0
LWPOLYLINE
  5
93
330
17
100
AcDbEntity
  8
INNER
100
AcDbPolyline
 90
14
 70
1
 10
-75.65985261004789
 20
-767.7167143217629
 10
-77.10623868076394
 20
-767.7167143217629
 10
-78.40938750144682
 20
-768.3442777183328
 10
-79.31119446608879
 20
-769.4751078842218
 10
-79.63304564540593
 20
-770.8852300363538
 10
-79.31119446608879
 20
-772.2953521884859
 10
-78.40938750144682
 20
-773.4261823543749
 10
-77.10623868076394
 20
-774.0537457509448
 10
-75.65985261004789
 20
-774.0537457509448
 10
-74.35670378936501
 20
-773.4261823543749
 10
-73.45489682472304
 20
-772.2953521884859
 10
-73.1330456454059
 20
-770.8852300363538
 10
-73.45489682472304
 20
-769.4751078842218
 10
-74.35670378936501
 20
-768.3442777183328
  0
LWPOLYLINE
  5
94
330
17
100
AcDbEntity
  8
INNER
100
AcDbPolyline
 90
16
 70
1
 10
-30.073312092482663
 20
-699.1352300363438
 10
-31.69971668003433
 20
-699.4587420231709
 10
-33.07851591252555
 20
-700.380026216301
 10
-33.99980010565571
 20
-701.7588254487922
 10
-34.32331209248275
 20
-703.3852300363438
 10
-33.99980010565571
 20
-705.0116346238955
 10
-33.07851591252555
 20
-706.3904338563867
 10
-31.699716680034328
 20
-707.3117180495168
 10
-30.073312092482663
 20
-707.6352300363438
 10
-28.446907504930998
 20
-707.3117180495168
 10
-27.068108272439773
 20
-706.3904338563867
 10
-26.14682407930961
 20
-705.0116346238955
 10
-25.823312092482574
 20
-703.3852300363438
 10
-26.14682407930961
 20
-701.7588254487922
 10
-27.06810827243977
 20
-700.380026216301
 10
-28.446907504930994
 20
-699.4587420231709
  0
LWPOLYLINE
  5
95
330
17
100
AcDbEntity
  8
INNER
100
AcDbPolyline
 90
8
 70
1
 10
-75.38304564540591
 20
-703.3852300363438
 10
-75.67593886421938
 20
-702.6781232551574
 10
-76.38304564540591
 20
-702.3852300363438
 10
-77.09015242659245
 20
-702.6781232551574
 10
-77.38304564540591
 20
-703.3852300363438
 10
-77.09015242659245
 20
-704.0923368175303
 10
-76.38304564540591
 20
-704.3852300363438
 10
-75.67593886421938
 20
-704.0923368175303
  0
LWPOLYLINE
  5
96
330
17
100
AcDbEntity
  8
INNER
100
AcDbPolyline
 90
12
 70
1
 10
-93.00304564540593
 20
-455.47016652688274
 10
-94.2530456454059
 20
-455.13523003634384
 10
-95.50304564540589
 20
-455.47016652688274
 10
-96.41810915486697
 20
-456.38523003634384
 10
-96.75304564540586
 20
-457.63523003634384
 10
-96.41810915486697
 20
-458.88523003634384
 10
-95.50304564540588
 20
-459.80029354580495
 10
-94.2530456454059
 20
-460.13523003634384
 10
-93.00304564540593
 20
-459.80029354580495
 10
-92.08798213594486
 20
-458.88523003634384
 10
-91.75304564540596
 20
-457.63523003634384
 10
-92.08798213594486
 20
-456.38523003634384
  0
LWPOLYLINE
  5
97
330
17
100
AcDbEntity
  8
INNER
100
AcDbPolyline
 90
16
 70
1
 10
-30.073312092482663
 20
-449.1352300363436
 10
-31.699716680034363
 20
-449.45874202317066
 10
-33.07851591252561
 20
-450.38002621630096
 10
-33.99980010565579
 20
-451.7588254487922
 10
-34.32331209248283
 20
-453.38523003634384
 10
-33.99980010565579
 20
-455.0116346238955
 10
-33.07851591252561
 20
-456.3904338563867
 10
-31.69971668003436
 20
-457.311718049517
 10
-30.073312092482663
 20
-457.63523003634407
 10
-28.446907504930966
 20
-457.311718049517
 10
-27.068108272439716
 20
-456.3904338563867
 10
-26.146824079309535
 20
-455.0116346238955
 10
-25.823312092482492
 20
-453.38523003634384
 10
-26.146824079309535
 20
-451.7588254487922
 10
-27.068108272439712
 20
-450.38002621630096
 10
-28.446907504930966
 20
-449.45874202317066
  0
LWPOLYLINE
  5
98
330
17
100
AcDbEntity
  8
INNER
100
AcDbPolyline
 90
16
 70
1
 10
-71.38304564540591
 20
-308.13523003634384
 10
-73.00945023295759
 20
-308.4587420231709
 10
-74.38824946544881
 20
-309.38002621630096
 10
-75.30953365857897
 20
-310.7588254487922
 10
-75.63304564540601
 20
-312.38523003634384
 10
-75.30953365857897
 20
-314.0116346238955
 10
-74.38824946544881
 20
-315.3904338563867
 10
-73.00945023295759
 20
-316.3117180495168
 10
-71.38304564540591
 20
-316.63523003634384
 10
-69.75664105785425
 20
-316.3117180495168
 10
-68.37784182536302
 20
-315.3904338563867
 10
-67.45655763223286
 20
-314.0116346238955
 10
-67.13304564540583
 20
-312.38523003634384
 10
-67.45655763223286
 20
-310.7588254487922
 10
-68.37784182536302
 20
-309.38002621630096
 10
-69.75664105785425
 20
-308.4587420231709
  0
LWPOLYLINE
  5
99
330
17
100
AcDbEntity
  8
INNER
100
AcDbPolyline
 90
16
 70
1
 10
-67.38304564540591
 20
-265.28523003634393
 10
-69.33473115046782
 20
-265.6734444205364
 10
-70.9892902294572
 20
-266.77898545229266
 10
-72.09483126121333
 20
-268.4335445312819
 10
-72.48304564540575
 20
-270.38523003634384
 10
-72.09483126121333
 20
-272.3369155414058
 10
-70.9892902294572
 20
-273.991474620395
 10
-69.3347311504678
 20
-275.0970156521513
 10
-67.38304564540591
 20
-275.48523003634375
 10
-65.43136014034403
 20
-275.0970156521513
 10
-63.77680106135464
 20
-273.991474620395
 10
-62.67126002959851
 20
-272.3369155414058
 10
-62.283045645406084
 20
-270.38523003634384
 10
-62.67126002959851
 20
-268.4335445312819
 10
-63.77680106135464
 20
-266.77898545229266
 10
-65.43136014034403
 20
-265.6734444205364
  0
LWPOLYLINE
  5
9A
330
17
100
AcDbEntity
  8
INNER
100
AcDbPolyline
 90
16
 70
1
 10
-67.38304564540591
 20
-95.28523003634393
 10
-69.3347311504678
 20
-95.67344442053638
 10
-70.98929022945718
 20
-96.77898545229266
 10
-72.09483126121332
 20
-98.43354453128188
 10
-72.48304564540574
 20
-100.38523003634384
 10
-72.09483126121332
 20
-102.3369155414058
 10
-70.98929022945718
 20
-103.99147462039502
 10
-69.3347311504678
 20
-105.0970156521513
 10
-67.38304564540591
 20
-105.48523003634375
 10
-65.43136014034403
 20
-105.0970156521513
 10
-63.77680106135465
 20
-103.99147462039502
 10
-62.671260029598514
 20
-102.3369155414058
 10
-62.28304564540609
 20
-100.38523003634384
 10
-62.671260029598514
 20
-98.43354453128188
 10
-63.77680106135464
 20
-96.77898545229266
 10
-65.43136014034403
 20
-95.67344442053638
  0
LWPOLYLINE
  5
9B
330
17
100
AcDbEntity
  8
INNER
100
AcDbPolyline
 90
16
 70
1
 10
-66.38304564540582
 20
-30.13523003634384
 10
-68.00945023295749
 20
-30.458742023170885
 10
-69.38824946544871
 20
-31.380026216300962
 10
-70.30953365857887
 20
-32.75882544879221
 10
-70.6330456454059
 20
-34.38523003634384
 10
-70.30953365857887
 20
-36.011634623895475
 10
-69.38824946544871
 20
-37.39043385638672
 10
-68.00945023295748
 20
-38.3117180495168
 10
-66.38304564540582
 20
-38.63523003634384
 10
-64.75664105785415
 20
-38.3117180495168
 10
-63.37784182536292
 20
-37.39043385638672
 10
-62.45655763223276
 20
-36.011634623895475
 10
-62.13304564540572
 20
-34.38523003634384
 10
-62.45655763223276
 20
-32.75882544879221
 10
-63.37784182536292
 20
-31.380026216300962
 10
-64.75664105785415
 20
-30.458742023170885
  0
LWPOLYLINE
  5
9C
330
17
100
AcDbEntity
  8
INNER
100
AcDbPolyline
 90
12
 70
1
 10
-93.00304564540593
 20
10.279833473117264
 10
-94.2530456454059
 20
10.614769963656158
 10
-95.50304564540589
 20
10.279833473117264
 10
-96.41810915486697
 20
9.364769963656158
 10
-96.75304564540586
 20
8.114769963656158
 10
-96.41810915486697
 20
6.864769963656158
 10
-95.50304564540588
 20
5.949706454195052
 10
-94.2530456454059
 20
5.614769963656158
 10
-93.00304564540593
 20
5.949706454195052
 10
-92.08798213594486
 20
6.864769963656158
 10
-91.75304564540596
 20
8.114769963656158
 10
-92.08798213594486
 20
9.364769963656158
  0
LWPOLYLINE
  5
9D
330
17
100
AcDbEntity
  8
INNER
100
AcDbPolyline
 90
16
 70
1
 10
-66.38304564540582
 20
149.86476996365616
 10
-68.00945023295745
 20
149.54125797682912
 10
-69.38824946544864
 20
148.61997378369892
 10
-70.30953365857877
 20
147.2411745512078
 10
-70.6330456454058
 20
145.61476996365616
 10
-70.30953365857877
 20
143.98836537610453
 10
-69.38824946544864
 20
142.6095661436134
 10
-68.00945023295745
 20
141.6882819504832
 10
-66.38304564540582
 20
141.36476996365616
 10
-64.7566410578542
 20
141.6882819504832
 10
-63.377841825363
 20
142.6095661436134
 10
-62.456557632232865
 20
143.98836537610453
 10
-62.133045645405836
 20
145.61476996365616
 10
-62.456557632232865
 20
147.2411745512078
 10
-63.377841825363
 20
148.61997378369892
 10
-64.7566410578542
 20
149.54125797682912
  0
LWPOLYLINE
  5
9E
330
17
100
AcDbEntity
  8
INNER
100
AcDbPolyline
 90
10
 70
1
 10
-30.19641115160158
 20
399.88269392822383
 10
-30.32331209246804
 20
397.11476996365616
 10
-30.196411151601577
 20
394.3468459990885
 10
-29.816773046277635
 20
391.602145317519
 10
-27.850263231149764
 20
391.9666163685031
 10
-28.20480129645224
 20
394.5298492364151
 10
-28.32331209246804
 20
397.11476996365616
 10
-28.20480129645224
 20
399.6996906908972
 10
-27.85026323114981
 20
402.262923558809
 10
-29.816773046277756
 20
402.6273946097931
  0
LWPOLYLINE
  5
9F
330
17
100
AcDbEntity
  8
INNER
100
AcDbPolyline
 90
12
 70
1
 10
-93.00304564540593
 20
476.02983347311726
 10
-94.2530456454059
 20
476.36476996365616
 10
-95.50304564540589
 20
476.02983347311726
 10
-96.41810915486697
 20
475.11476996365616
 10
-96.75304564540586
 20
473.86476996365616
 10
-96.41810915486697
 20
472.61476996365616
 10
-95.50304564540588
 20
471.69970645419505
 10
-94.2530456454059
 20
471.36476996365616
 10
-93.00304564540593
 20
471.69970645419505
 10
-92.08798213594486
 20
472.61476996365616
 10
-91.75304564540596
 20
473.86476996365616
 10
-92.08798213594486
 20
475.11476996365616
  0
LWPOLYLINE
  5
A0
330
17
100
AcDbEntity
  8
INNER
100
AcDbPolyline
 90
10
 70
1
 10
-29.816773046286272
 20
825.1273946097941
 10
-30.196411151610235
 20
822.3826939282244
 10
-30.32331209247674
 20
819.6147699636562
 10
-30.196411151610278
 20
816.8468459990885
 10
-29.816773046286293
 20
814.1021453175188
 10
-27.850263231158465
 20
814.4666163685031
 10
-28.204801296461042
 20
817.0298492364151
 10
-28.32331209247687
 20
819.6147699636562
 10
-28.204801296461046
 20
822.1996906908972
 10
-27.85026323115835
 20
824.7629235588098
  0
LWPOLYLINE
  5
A1
330
17
100
AcDbEntity
  8
INNER
100
AcDbPolyline
 90
12
 70
1
 10
-92.08798213594483
 20
935.8647699636563
 10
-93.00304564540592
 20
936.7798334731174
 10
-94.2530456454059
 20
937.1147699636563
 10
-95.5030456454059
 20
936.7798334731174
 10
-96.418109154867
 20
935.8647699636563
 10
-96.7530456454059
 20
934.6147699636563
 10
-96.418109154867
 20
933.3647699636563
 10
-95.5030456454059
 20
932.4497064541952
 10
-94.2530456454059
 20
932.1147699636563
 10
-93.00304564540592
 20
932.4497064541952
 10
-92.08798213594483
 20
933.3647699636563
 10
-91.75304564540592
 20
934.6147699636563
  0
LWPOLYLINE
  5
A2
330
17
100
AcDbEntity
  8
INNER
100
AcDbPolyline
 90
12
 70
1
 10
95.35642146044059
 20
-936.2201665268827
 10
94.1064214604406
 20
-935.8852300363438
 10
92.85642146044063
 20
-936.2201665268827
 10
91.94135795097955
 20
-937.1352300363438
 10
91.60642146044066
 20
-938.3852300363438
 10
91.94135795097955
 20
-939.6352300363438
 10
92.85642146044063
 20
-940.550293545805
 10
94.1064214604406
 20
-940.8852300363438
 10
95.35642146044057
 20
-940.550293545805
 10
96.27148496990166
 20
-939.6352300363438
 10
96.60642146044056
 20
-938.3852300363438
 10
96.27148496990166
 20
-937.1352300363438
  0
LWPOLYLINE
  5
A3
330
17
100
AcDbEntity
  8
INNER
100
AcDbPolyline
 90
16
 70
1
 10
-0.07331209248255705
 20
-923.1352300363238
 10
-1.6997166800341983
 20
-923.4587420231509
 10
-3.078515912525402
 20
-924.380026216281
 10
-3.9998001056555474
 20
-925.7588254487722
 10
-4.3233120924825785
 20
-927.3852300363238
 10
-3.9998001056555457
 20
-929.0116346238755
 10
-3.0785159125253996
 20
-930.3904338563667
 10
-1.6997166800341974
 20
-931.3117180494968
 10
-0.07331209248255809
 20
-931.6352300363238
 10
1.5530924950690812
 20
-931.3117180494968
 10
2.931891727560283
 20
-930.3904338563667
 10
3.8531759206904295
 20
-929.0116346238755
 10
4.176687907517462
 20
-927.3852300363238
 10
3.85317592069043
 20
-925.7588254487722
 10
2.931891727560284
 20
-924.380026216281
 10
1.5530924950690839
 20
-923.4587420231509
  0
LWPOLYLINE
  5
A4
330
17
100
AcDbEntity
  8
INNER
100
AcDbPolyline
 90
16
 70
1
 10
-0.07331209248253995
 20
-835.1352300363241
 10
-1.699716680034181
 20
-835.4587420231511
 10
-3.0785159125253845
 20
-836.3800262162812
 10
-3.99980010565553
 20
-837.7588254487724
 10
-4.323312092482562
 20
-839.3852300363241
 10
-3.9998001056555283
 20
-841.0116346238757
 10
-3.0785159125253823
 20
-842.3904338563669
 10
-1.69971668003418
 20
-843.311718049497
 10
-0.07331209248254099
 20
-843.6352300363241
 10
1.5530924950690985
 20
-843.311718049497
 10
2.9318917275603003
 20
-842.3904338563669
 10
3.853175920690447
 20
-841.0116346238757
 10
4.176687907517479
 20
-839.3852300363241
 10
3.8531759206904472
 20
-837.7588254487724
 10
2.931891727560301
 20
-836.3800262162812
 10
1.5530924950691012
 20
-835.4587420231511
  0
LWPOLYLINE
  5
A5
330
17
100
AcDbEntity
  8
INNER
100
AcDbPolyline
 90
18
 70
1
 10
8.971622930349218
 20
-453.96878739477677
 10
7.176687907517335
 20
-454.62209031552936
 10
5.713443470362959
 20
-455.8498981830679
 10
4.758378493194842
 20
-457.5041192480527
 10
4.426687907517338
 20
-459.38523003634384
 10
4.758378493194842
 20
-461.266340824635
 10
5.71344347036296
 20
-462.92056188961976
 10
7.17668790751734
 20
-464.1483697571583
 10
8.971622930349222
 20
-464.8016726779109
 10
10.881752884685456
 20
-464.8016726779109
 10
12.676687907517339
 20
-464.1483697571583
 10
14.139932344671719
 20
-462.92056188961976
 10
15.094997321839836
 20
-461.266340824635
 10
15.426687907517339
 20
-459.38523003634384
 10
15.09499732183983
 20
-457.5041192480527
 10
14.139932344671712
 20
-455.8498981830679
 10
12.676687907517332
 20
-454.62209031552936
 10
10.881752884685449
 20
-453.96878739477677
  0
LWPOLYLINE
  5
A6
330
17
100
AcDbEntity
  8
INNER
100
AcDbPolyline
 90
12
 70
1
 10
95.35642146044059
 20
-455.47016652688274
 10
94.1064214604406
 20
-455.13523003634384
 10
92.85642146044063
 20
-455.47016652688274
 10
91.94135795097955
 20
-456.38523003634384
 10
91.60642146044066
 20
-457.63523003634384
 10
91.94135795097955
 20
-458.88523003634384
 10
92.85642146044063
 20
-459.80029354580495
 10
94.1064214604406
 20
-460.13523003634384
 10
95.35642146044057
 20
-459.80029354580495
 10
96.27148496990166
 20
-458.88523003634384
 10
96.60642146044056
 20
-457.63523003634384
 10
96.27148496990166
 20
-456.38523003634384
  0
LWPOLYLINE
  5
A7
330
17
100
AcDbEntity
  8
INNER
100
AcDbPolyline
 90
16
 70
1
 10
9.926687907517339
 20
-174.28523003634393
 10
8.357685834820469
 20
-174.59732395304752
 10
7.027550104652492
 20
-175.4860922334791
 10
6.138781824221062
 20
-176.81622796364707
 10
5.8266879075173375
 20
-178.38523003634384
 10
6.138781824221062
 20
-179.95423210904062
 10
7.0275501046524935
 20
-181.28436783920858
 10
8.35768583482047
 20
-182.17313611964016
 10
9.926687907517339
 20
-182.48523003634375
 10
11.495689980214207
 20
-182.17313611964016
 10
12.825825710382185
 20
-181.28436783920858
 10
13.714593990813615
 20
-179.95423210904062
 10
14.02668790751734
 20
-178.38523003634384
 10
13.714593990813617
 20
-176.81622796364707
 10
12.825825710382185
 20
-175.4860922334791
 10
11.495689980214207
 20
-174.59732395304752
  0
LWPOLYLINE
  5
A8
330
17
100
AcDbEntity
  8
INNER
100
AcDbPolyline
 90
16
 70
1
 10
9.926687907517339
 20
-159.28523003634393
 10
8.357685834820469
 20
-159.59732395304752
 10
7.027550104652492
 20
-160.4860922334791
 10
6.138781824221062
 20
-161.81622796364707
 10
5.8266879075173375
 20
-163.38523003634384
 10
6.138781824221062
 20
-164.95423210904062
 10
7.0275501046524935
 20
-166.28436783920858
 10
8.35768583482047
 20
-167.17313611964016
 10
9.926687907517339
 20
-167.48523003634375
 10
11.495689980214207
 20
-167.17313611964016
 10
12.825825710382185
 20
-166.28436783920858
 10
13.714593990813615
 20
-164.95423210904062
 10
14.02668790751734
 20
-163.38523003634384
 10
13.714593990813617
 20
-161.81622796364707
 10
12.825825710382185
 20
-160.4860922334791
 10
11.495689980214207
 20
-159.59732395304752
  0
LWPOLYLINE
  5
A9
330
17
100
AcDbEntity
  8
INNER
100
AcDbPolyline
 90
16
 70
1
 10
9.926687907517339
 20
-144.28523003634393
 10
8.357685834820469
 20
-144.59732395304752
 10
7.027550104652492
 20
-145.4860922334791
 10
6.138781824221062
 20
-146.81622796364707
 10
5.8266879075173375
 20
-148.38523003634384
 10
6.138781824221062
 20
-149.95423210904062
 10
7.0275501046524935
 20
-151.28436783920858
 10
8.35768583482047
 20
-152.17313611964016
 10
9.926687907517339
 20
-152.48523003634375
 10
11.495689980214207
 20
-152.17313611964016
 10
12.825825710382185
 20
-151.28436783920858
 10
13.714593990813615
 20
-149.95423210904062
 10
14.02668790751734
 20
-148.38523003634384
 10
13.714593990813617
 20
-146.81622796364707
 10
12.825825710382185
 20
-145.4860922334791
 10
11.495689980214207
 20
-144.59732395304752
  0
LWPOLYLINE
  5
AA
330
17
100
AcDbEntity
  8
INNER
100
AcDbPolyline
 90
12
 70
1
 10
95.35642146044059
 20
10.279833473117264
 10
94.1064214604406
 20
10.614769963656158
 10
92.85642146044063
 20
10.279833473117264
 10
91.94135795097955
 20
9.364769963656158
 10
91.60642146044066
 20
8.114769963656158
 10
91.94135795097955
 20
6.864769963656158
 10
92.85642146044063
 20
5.949706454195052
 10
94.1064214604406
 20
5.614769963656158
 10
95.35642146044057
 20
5.949706454195052
 10
96.27148496990166
 20
6.864769963656158
 10
96.60642146044056
 20
8.114769963656158
 10
96.27148496990166
 20
9.364769963656158
  0
LWPOLYLINE
  5
AB
330
17
100
AcDbEntity
  8
INNER
100
AcDbPolyline
 90
16
 70
1
 10
31.926687907519035
 20
59.86476996365616
 10
30.300283319967406
 20
59.541257976829115
 10
28.921484087476216
 20
58.619973783698924
 10
28.000199894346075
 20
57.24117455120779
 10
27.676687907519046
 20
55.61476996365616
 10
28.000199894346075
 20
53.988365376104525
 10
28.921484087476216
 20
52.60956614361339
 10
30.30028331996741
 20
51.6882819504832
 10
31.926687907519035
 20
51.36476996365616
 10
33.553092495070665
 20
51.6882819504832
 10
34.93189172756186
 20
52.60956614361339
 10
35.853175920691996
 20
53.988365376104525
 10
36.17668790751903
 20
55.61476996365616
 10
35.853175920692
 20
57.24117455120779
 10
34.93189172756186
 20
58.619973783698924
 10
33.553092495070665
 20
59.541257976829115
  0
LWPOLYLINE
  5
AC
330
17
100
AcDbEntity
  8
INNER
100
AcDbPolyline
 90
16
 70
1
 10
29.926687907519035
 20
97.21476996365618
 10
27.975002402457065
 20
96.82655557946373
 10
26.320443323467618
 20
95.72101454770757
 10
25.214902291711443
 20
94.06645546871812
 10
24.826687907519005
 20
92.11476996365616
 10
25.214902291711446
 20
90.1630844585942
 10
26.32044332346762
 20
88.50852537960475
 10
27.975002402457065
 20
87.40298434784859
 10
29.926687907519035
 20
87.01476996365614
 10
31.878373412581006
 20
87.40298434784859
 10
33.53293249157045
 20
88.50852537960475
 10
34.63847352332663
 20
90.1630844585942
 10
35.02668790751907
 20
92.11476996365616
 10
34.63847352332663
 20
94.06645546871812
 10
33.532932491570456
 20
95.72101454770757
 10
31.87837341258101
 20
96.82655557946373
  0
LWPOLYLINE
  5
AD
330
17
100
AcDbEntity
  8
INNER
100
AcDbPolyline
 90
16
 70
1
 10
27.426687907517337
 20
218.36476996365604
 10
25.80028331996573
 20
218.04125797682912
 10
24.42148408747455
 20
217.11997378369892
 10
23.500199894344423
 20
215.7411745512078
 10
23.176687907517397
 20
214.11476996365616
 10
23.500199894344423
 20
212.48836537610453
 10
24.421484087474553
 20
211.1095661436134
 10
25.80028331996573
 20
210.1882819504832
 10
27.426687907517337
 20
209.86476996365627
 10
29.053092495068945
 20
210.1882819504832
 10
30.43189172756012
 20
211.1095661436134
 10
31.35317592069025
 20
212.48836537610453
 10
31.676687907517277
 20
214.11476996365616
 10
31.35317592069025
 20
215.7411745512078
 10
30.43189172756012
 20
217.11997378369892
 10
29.05309249506895
 20
218.04125797682912
  0
LWPOLYLINE
  5
AE
330
17
100
AcDbEntity
  8
INNER
100
AcDbPolyline
 90
16
 70
1
 10
-27.573312092482663
 20
218.36476996365604
 10
-29.19971668003427
 20
218.04125797682912
 10
-30.57851591252545
 20
217.11997378369892
 10
-31.499800105655577
 20
215.7411745512078
 10
-31.823312092482603
 20
214.11476996365616
 10
-31.499800105655577
 20
212.48836537610453
 10
-30.578515912525447
 20
211.1095661436134
 10
-29.19971668003427
 20
210.1882819504832
 10
-27.573312092482663
 20
209.86476996365627
 10
-25.946907504931055
 20
210.1882819504832
 10
-24.56810827243988
 20
211.1095661436134
 10
-23.64682407930975
 20
212.48836537610453
 10
-23.323312092482723
 20
214.11476996365616
 10
-23.64682407930975
 20
215.7411745512078
 10
-24.56810827243988
 20
217.11997378369892
 10
-25.94690750493105
 20
218.04125797682912
  0
LWPOLYLINE
  5
AF
330
17
100
AcDbEntity
  8
INNER
100
AcDbPolyline
 90
10
 70
1
 10
30.049786966665497
 20
394.3468459990885
 10
30.17668790753196
 20
397.11476996365616
 10
30.049786966665497
 20
399.88269392822383
 10
29.670148861341637
 20
402.6273946097931
 10
27.703639046213784
 20
402.262923558809
 10
28.05817711151616
 20
399.6996906908972
 10
28.17668790753196
 20
397.11476996365616
 10
28.058177111516155
 20
394.5298492364151
 10
27.703639046213638
 20
391.9666163685031
 10
29.670148861341662
 20
391.6021453175191
  0
LWPOLYLINE
  5
B0
330
17
100
AcDbEntity
  8
INNER
100
AcDbPolyline
 90
12
 70
1
 10
95.35642146044059
 20
476.02983347311726
 10
94.1064214604406
 20
476.36476996365616
 10
92.85642146044063
 20
476.02983347311726
 10
91.94135795097955
 20
475.11476996365616
 10
91.60642146044066
 20
473.86476996365616
 10
91.94135795097955
 20
472.61476996365616
 10
92.85642146044063
 20
471.69970645419505
 10
94.1064214604406
 20
471.36476996365616
 10
95.35642146044057
 20
471.69970645419505
 10
96.27148496990166
 20
472.61476996365616
 10
96.60642146044056
 20
473.86476996365616
 10
96.27148496990166
 20
475.11476996365616
  0
LWPOLYLINE
  5
B1
330
17
100
AcDbEntity
  8
INNER
100
AcDbPolyline
 90
10
 70
1
 10
29.670148861332972
 20
814.1021453175192
 10
30.049786966656796
 20
816.8468459990885
 10
30.17668790752326
 20
819.6147699636562
 10
30.049786966656796
 20
822.3826939282238
 10
29.670148861332937
 20
825.1273946097931
 10
27.70363904620506
 20
824.762923558809
 10
28.058177111507362
 20
822.1996906908971
 10
28.17668790752313
 20
819.6147699636562
 10
28.05817711150736
 20
817.0298492364151
 10
27.703639046205037
 20
814.4666163685031
  0
LWPOLYLINE
  5
B2
330
17
100
AcDbEntity
  8
INNER
100
AcDbPolyline
 90
12
 70
1
 10
96.27148496990169
 20
935.8647699636563
 10
95.3564214604406
 20
936.7798334731174
 10
94.1064214604406
 20
937.1147699636563
 10
92.85642146044061
 20
936.7798334731174
 10
91.94135795097952
 20
935.8647699636563
 10
91.60642146044061
 20
934.6147699636563
 10
91.94135795097952
 20
933.3647699636563
 10
92.85642146044061
 20
932.4497064541952
 10
94.1064214604406
 20
932.1147699636563
 10
95.3564214604406
 20
932.4497064541952
 10
96.27148496990169
 20
933.3647699636563
 10
96.6064214604406
 20
934.6147699636563
  0
LINE
  5
B3
330
17
100
AcDbEntity
  8
BEND_DOWN
 48
19.13756423490267
100
AcDbLine
 10
-45.72817886894428
 20
-468.38523003634384
 30
0.0
 11
-45.72817886894428
 21
-688.3852300363438
 31
0.0
  0
LINE
  5
B4
330
17
100
AcDbEntity
  8
BEND_DOWN
 48
19.13756423490267
100
AcDbLine
 10
45.581554683978965
 20
35.61476996365593
 30
0.0
 11
45.581554683978965
 21
-953.3852300363436
 31
0.0
  0
TEXT
  5
B5
330
17
100
AcDbEntity
  8
INFO
100
AcDbText
 10
-101.38304564540591
 20
1020.9772699636562
 30
0.0
 40
47.575
  1
10001073530_Rev_00 | t=5.00mm
 11
-101.38304564540591
 21
1020.9772699636562
 31
0.0
100
AcDbText
  0
MTEXT
  5
B6
330
17
100
AcDbEntity
  8
ANNOTATION
100
AcDbMText
 10
-101.38304564540591
 20
-1048.5352300363438
 30
0.0
 40
47.575
 71
1
  1
BEND TABLE:\P  #0 dir=down angle=90.0 radius=5.00 length=220.00\P  #1 dir=down angle=90.0 radius=5.00 length=989.00
  0
ENDSEC
  0
SECTION
  2
OBJECTS
  0
DICTIONARY
  5
A
330
0
100
AcDbDictionary
281
1
  3
ACAD_COLOR
350
B
  3
ACAD_GROUP
350
C
  3
ACAD_LAYOUT
350
D
  3
ACAD_MATERIAL
350
E
  3
ACAD_MLEADERSTYLE
350
F
  3
ACAD_MLINESTYLE
350
10
  3
ACAD_PLOTSETTINGS
350
11
  3
ACAD_PLOTSTYLENAME
350
12
  3
ACAD_SCALELIST
350
14
  3
ACAD_TABLESTYLE
350
15
  3
ACAD_VISUALSTYLE
350
16
  3
EZDXF_META
350
2D
  0
DICTIONARY
  5
B
330
A
100
AcDbDictionary
281
1
  0
DICTIONARY
  5
C
330
A
100
AcDbDictionary
281
1
  0
DICTIONARY
  5
D
330
A
100
AcDbDictionary
281
1
  3
Model
350
1A
  3
Layout1
350
1E
  0
DICTIONARY
  5
E
330
A
100
AcDbDictionary
281
1
  3
ByBlock
350
1F
  3
ByLayer
350
20
  3
Global
350
21
  0
DICTIONARY
  5
F
330
A
100
AcDbDictionary
281
1
  3
Standard
350
2C
  0
DICTIONARY
  5
10
330
A
100
AcDbDictionary
281
1
  3
Standard
350
22
  0
DICTIONARY
  5
11
330
A
100
AcDbDictionary
281
1
  0
ACDBDICTIONARYWDFLT
  5
12
330
A
100
AcDbDictionary
281
1
  3
Normal
350
13
100
AcDbDictionaryWithDefault
340
13
  0
ACDBPLACEHOLDER
  5
13
330
12
  0
DICTIONARY
  5
14
330
A
100
AcDbDictionary
281
1
  0
DICTIONARY
  5
15
330
A
100
AcDbDictionary
281
1
  0
DICTIONARY
  5
16
330
A
100
AcDbDictionary
281
1
  3
2dWireframe
350
5A
  3
Basic
350
5B
  3
Brighten
350
5C
  3
ColorChange
350
5D
  3
Conceptual
350
5E
  3
Dim
350
5F
  3
EdgeColorOff
350
60
  3
Facepattern
350
61
  3
Flat
350
62
  3
FlatWithEdges
350
63
  3
Gouraud
350
64
  3
GouraudWithEdges
350
65
  3
Hidden
350
66
  3
JitterOff
350
67
  3
Linepattern
350
68
  3
Modeling
350
69
  3
OverhangOff
350
6A
  3
Realistic
350
6B
  3
Shaded
350
6C
  3
Shaded with edges
350
6D
  3
Shades of Gray
350
6E
  3
Sketchy
350
6F
  3
Thicken
350
70
  3
Wireframe
350
71
  3
X-Ray
350
72
  0
LAYOUT
  5
1A
330
D
100
AcDbPlotSettings
  1

  4
A3
  6

 40
7.5
 41
20.0
 42
7.5
 43
20.0
 44
420.0
 45
297.0
 46
0.0
 47
0.0
 48
0.0
 49
0.0
140
0.0
141
0.0
142
1.0
143
1.0
 70
1024
 72
1
 73
0
 74
5
  7

 75
16
 76
0
 77
2
 78
300
147
1.0
148
0.0
149
0.0
100
AcDbLayout
  1
Model
 70
1
 71
0
 10
0.0
 20
0.0
 11
420.0
 21
297.0
 12
0.0
 22
0.0
 32
0.0
 14
1e+20
 24
1e+20
 34
1e+20
 15
-1e+20
 25
-1e+20
 35
-1e+20
146
0.0
 13
0.0
 23
0.0
 33
0.0
 16
1.0
 26
0.0
 36
0.0
 17
0.0
 27
1.0
 37
0.0
 76
1
330
17
  0
LAYOUT
  5
1E
330
D
100
AcDbPlotSettings
  1

  4
A3
  6

 40
7.5
 41
20.0
 42
7.5
 43
20.0
 44
420.0
 45
297.0
 46
0.0
 47
0.0
 48
0.0
 49
0.0
140
0.0
141
0.0
142
1.0
143
1.0
 70
0
 72
1
 73
0
 74
5
  7

 75
16
 76
0
 77
2
 78
300
147
1.0
148
0.0
149
0.0
100
AcDbLayout
  1
Layout1
 70
1
 71
1
 10
0.0
 20
0.0
 11
420.0
 21
297.0
 12
0.0
 22
0.0
 32
0.0
 14
1e+20
 24
1e+20
 34
1e+20
 15
-1e+20
 25
-1e+20
 35
-1e+20
146
0.0
 13
0.0
 23
0.0
 33
0.0
 16
1.0
 26
0.0
 36
0.0
 17
0.0
 27
1.0
 37
0.0
 76
1
330
1B
  0
MATERIAL
  5
1F
102
{ACAD_REACTORS
330
E
102
}
330
E
100
AcDbMaterial
  1
ByBlock
  2

 70
0
 40
1.0
 71
1
 41
1.0
 91
-1023410177
 42
1.0
 72
1
  3

 73
1
 74
1
 75
1
 44
0.5
 73
0
 45
1.0
 46
1.0
 77
1
  4

 78
1
 79
1
170
1
 48
1.0
171
1
  6

172
1
173
1
174
1
140
1.0
141
1.0
175
1
  7

176
1
177
1
178
1
143
1.0
179
1
  8

270
1
271
1
272
1
145
1.0
146
1.0
273
1
  9

274
1
275
1
276
1
 42
1.0
 72
1
  3

 73
1
 74
1
 75
1
 94
63
  0
MATERIAL
  5
20
102
{ACAD_REACTORS
330
E
102
}
330
E
100
AcDbMaterial
  1
ByLayer
  2

 70
0
 40
1.0
 71
1
 41
1.0
 91
-1023410177
 42
1.0
 72
1
  3

 73
1
 74
1
 75
1
 44
0.5
 73
0
 45
1.0
 46
1.0
 77
1
  4

 78
1
 79
1
170
1
 48
1.0
171
1
  6

172
1
173
1
174
1
140
1.0
141
1.0
175
1
  7

176
1
177
1
178
1
143
1.0
179
1
  8

270
1
271
1
272
1
145
1.0
146
1.0
273
1
  9

274
1
275
1
276
1
 42
1.0
 72
1
  3

 73
1
 74
1
 75
1
 94
63
  0
MATERIAL
  5
21
102
{ACAD_REACTORS
330
E
102
}
330
E
100
AcDbMaterial
  1
Global
  2

 70
0
 40
1.0
 71
1
 41
1.0
 91
-1023410177
 42
1.0
 72
1
  3

 73
1
 74
1
 75
1
 44
0.5
 73
0
 45
1.0
 46
1.0
 77
1
  4

 78
1
 79
1
170
1
 48
1.0
171
1
  6

172
1
173
1
174
1
140
1.0
141
1.0
175
1
  7

176
1
177
1
178
1
143
1.0
179
1
  8

270
1
271
1
272
1
145
1.0
146
1.0
273
1
  9

274
1
275
1
276
1
 42
1.0
 72
1
  3

 73
1
 74
1
 75
1
 94
63
  0
MLINESTYLE
  5
22
102
{ACAD_REACTORS
330
10
102
}
330
10
100
AcDbMlineStyle
  2
Standard
 70
0
  3

 62
256
 51
90.0
 52
90.0
 71
2
 49
0.5
 62
256
  6
BYLAYER
 49
-0.5
 62
256
  6
BYLAYER
  0
MLEADERSTYLE
  5
2C
102
{ACAD_REACTORS
330
F
102
}
330
F
100
AcDbMLeaderStyle
179
2
170
2
171
1
172
0
 90
2
 40
0.0
 41
0.0
173
1
 91
-1056964608
 92
-2
290
1
 42
2.0
291
1
 43
8.0
  3
Standard
 44
4.0
300

342
29
174
1
175
1
176
0
178
1
 93
-1056964608
 45
4.0
292
0
297
0
 46
4.0
 94
-1056964608
 47
1.0
 49
1.0
140
1.0
294
1
141
0.0
177
0
142
1.0
295
0
296
0
143
3.75
271
0
272
9
273
9
  0
DICTIONARY
  5
2D
330
A
100
AcDbDictionary
280
1
281
1
  3
CREATED_BY_EZDXF
350
2E
  3
WRITTEN_BY_EZDXF
350
B9
  0
DICTIONARYVAR
  5
2E
330
2D
100
DictionaryVariables
280
0
  1
1.4.4 @ 2026-05-21T16:18:51.714850+00:00
  0
VISUALSTYLE
  5
5A
102
{ACAD_REACTORS
330
16
102
}
330
16
100
AcDbVisualStyle
  2
2dWireframe
 70
4
 90
0
 40
0.6
 62
7
290
0
291
0
  0
VISUALSTYLE
  5
5B
102
{ACAD_REACTORS
330
16
102
}
330
16
100
AcDbVisualStyle
  2
Basic
 70
7
 90
1
 40
0.6
 62
7
290
0
291
1
  0
VISUALSTYLE
  5
5C
102
{ACAD_REACTORS
330
16
102
}
330
16
100
AcDbVisualStyle
  2
Brighten
 70
12
 90
2
 40
0.6
 62
7
290
0
291
1
  0
VISUALSTYLE
  5
5D
102
{ACAD_REACTORS
330
16
102
}
330
16
100
AcDbVisualStyle
  2
ColorChange
 70
16
 90
2
 40
0.6
 62
8
290
0
291
1
  0
VISUALSTYLE
  5
5E
102
{ACAD_REACTORS
330
16
102
}
330
16
100
AcDbVisualStyle
  2
Conceptual
 70
9
 90
3
 40
0.6
 62
7
290
0
291
0
  0
VISUALSTYLE
  5
5F
102
{ACAD_REACTORS
330
16
102
}
330
16
100
AcDbVisualStyle
  2
Dim
 70
11
 90
2
 40
0.6
 62
7
290
0
291
1
  0
VISUALSTYLE
  5
60
102
{ACAD_REACTORS
330
16
102
}
330
16
100
AcDbVisualStyle
  2
EdgeColorOff
 70
22
 90
2
 40
0.6
 62
7
290
0
291
1
  0
VISUALSTYLE
  5
61
102
{ACAD_REACTORS
330
16
102
}
330
16
100
AcDbVisualStyle
  2
Facepattern
 70
15
 90
2
 40
0.6
 62
7
290
0
291
1
  0
VISUALSTYLE
  5
62
102
{ACAD_REACTORS
330
16
102
}
330
16
100
AcDbVisualStyle
  2
Flat
 70
0
 90
2
 40
0.6
 62
7
290
0
291
1
  0
VISUALSTYLE
  5
63
102
{ACAD_REACTORS
330
16
102
}
330
16
100
AcDbVisualStyle
  2
FlatWithEdges
 70
1
 90
2
 40
0.6
 62
7
290
0
291
1
  0
VISUALSTYLE
  5
64
102
{ACAD_REACTORS
330
16
102
}
330
16
100
AcDbVisualStyle
  2
Gouraud
 70
2
 90
2
 40
0.6
 62
7
290
0
291
1
  0
VISUALSTYLE
  5
65
102
{ACAD_REACTORS
330
16
102
}
330
16
100
AcDbVisualStyle
  2
GouraudWithEdges
 70
3
 90
2
 40
0.6
 62
7
290
0
291
1
  0
VISUALSTYLE
  5
66
102
{ACAD_REACTORS
330
16
102
}
330
16
100
AcDbVisualStyle
  2
Hidden
 70
6
 90
1
 40
0.6
 62
7
290
0
291
0
  0
VISUALSTYLE
  5
67
102
{ACAD_REACTORS
330
16
102
}
330
16
100
AcDbVisualStyle
  2
JitterOff
 70
20
 90
2
 40
0.6
 62
7
290
0
291
1
  0
VISUALSTYLE
  5
68
102
{ACAD_REACTORS
330
16
102
}
330
16
100
AcDbVisualStyle
  2
Linepattern
 70
14
 90
2
 40
0.6
 62
7
290
0
291
1
  0
VISUALSTYLE
  5
69
102
{ACAD_REACTORS
330
16
102
}
330
16
100
AcDbVisualStyle
  2
Modeling
 70
10
 90
2
 40
0.6
 62
7
290
0
291
0
  0
VISUALSTYLE
  5
6A
102
{ACAD_REACTORS
330
16
102
}
330
16
100
AcDbVisualStyle
  2
OverhangOff
 70
21
 90
2
 40
0.6
 62
7
290
0
291
1
  0
VISUALSTYLE
  5
6B
102
{ACAD_REACTORS
330
16
102
}
330
16
100
AcDbVisualStyle
  2
Realistic
 70
8
 90
2
 40
0.6
 62
7
290
0
291
0
  0
VISUALSTYLE
  5
6C
102
{ACAD_REACTORS
330
16
102
}
330
16
100
AcDbVisualStyle
  2
Shaded
 70
27
 90
2
 40
0.6
 62
7
290
0
291
0
  0
VISUALSTYLE
  5
6D
102
{ACAD_REACTORS
330
16
102
}
330
16
100
AcDbVisualStyle
  2
Shaded with edges
 70
26
 90
2
 40
0.6
 62
7
290
0
291
0
  0
VISUALSTYLE
  5
6E
102
{ACAD_REACTORS
330
16
102
}
330
16
100
AcDbVisualStyle
  2
Shades of Gray
 70
23
 90
2
 40
0.6
 62
7
290
0
291
0
  0
VISUALSTYLE
  5
6F
102
{ACAD_REACTORS
330
16
102
}
330
16
100
AcDbVisualStyle
  2
Sketchy
 70
24
 90
1
 40
0.6
 62
7
290
0
291
0
  0
VISUALSTYLE
  5
70
102
{ACAD_REACTORS
330
16
102
}
330
16
100
AcDbVisualStyle
  2
Thicken
 70
13
 90
2
 40
0.6
 62
7
290
0
291
1
  0
VISUALSTYLE
  5
71
102
{ACAD_REACTORS
330
16
102
}
330
16
100
AcDbVisualStyle
  2
Wireframe
 70
5
 90
0
 40
0.6
 62
7
290
0
291
0
  0
VISUALSTYLE
  5
72
102
{ACAD_REACTORS
330
16
102
}
330
16
100
AcDbVisualStyle
  2
X-Ray
 70
25
 90
2
 40
0.5
 62
7
290
0
291
0
  0
DICTIONARYVAR
  5
B9
330
2D
100
DictionaryVariables
280
0
  1
1.4.4 @ 2026-05-21T16:18:51.721796+00:00
  0
ENDSEC
  0
EOF
