<svg xmlns="http://www.w3.org/2000/svg" viewBox="-3.600 -63.600 97.200 67.200" width="640" height="480" preserveAspectRatio="xMidYMid meet" style="background:#ffffff">
<g transform="translate(0,-63.600) scale(1,-1)">
<polyline points="0.000,0.000 0.000,-60.000" fill="none" stroke="#999999" stroke-width="0.3402" stroke-dasharray="1.3608,0.6804"/>
<polyline points="0.000,-60.000 3.000,-60.000" fill="none" stroke="#999999" stroke-width="0.3402" stroke-dasharray="1.3608,0.6804"/>
<polyline points="3.000,0.000 3.000,-60.000" fill="none" stroke="#999999" stroke-width="0.3402" stroke-dasharray="1.3608,0.6804"/>
<polyline points="0.000,0.000 3.000,0.000" fill="none" stroke="#999999" stroke-width="0.3402" stroke-dasharray="1.3608,0.6804"/>
<polyline points="3.000,0.000 3.000,-60.000" fill="none" stroke="#999999" stroke-width="0.3402" stroke-dasharray="1.3608,0.6804"/>
<polyline points="3.000,0.000 3.100,0.000 3.396,0.000 3.873,0.000 4.506,0.000 5.264,0.000 6.110,0.000 7.000,0.000 7.890,0.000 8.736,0.000 9.494,0.000 10.127,0.000 10.604,0.000 10.900,0.000 11.000,0.000" fill="none" stroke="#999999" stroke-width="0.3402" stroke-dasharray="1.3608,0.6804"/>
<polyline points="11.000,0.000 10.975,0.000 10.900,0.000 10.776,0.000 10.604,0.000 10.387,0.000 10.127,0.000 9.828,0.000 9.494,0.000 9.128,0.000 8.736,0.000 8.321,0.000 7.890,0.000 7.448,0.000 7.000,0.000" fill="none" stroke="#999999" stroke-width="0.3402" stroke-dasharray="1.3608,0.6804"/>
<polyline points="7.000,0.000 7.000,-60.000" fill="none" stroke="#999999" stroke-width="0.3402" stroke-dasharray="1.3608,0.6804"/>
<polyline points="3.000,-60.000 3.100,-60.000 3.396,-60.000 3.873,-60.000 4.506,-60.000 5.264,-60.000 6.110,-60.000 7.000,-60.000 7.890,-60.000 8.736,-60.000 9.494,-60.000 10.127,-60.000 10.604,-60.000 10.900,-60.000 11.000,-60.000" fill="none" stroke="#999999" stroke-width="0.3402" stroke-dasharray="1.3608,0.6804"/>
<polyline points="11.000,-60.000 10.975,-60.000 10.900,-60.000 10.776,-60.000 10.604,-60.000 10.387,-60.000 10.127,-60.000 9.828,-60.000 9.494,-60.000 9.128,-60.000 8.736,-60.000 8.321,-60.000 7.890,-60.000 7.448,-60.000 7.000,-60.000" fill="none" stroke="#999999" stroke-width="0.3402" stroke-dasharray="1.3608,0.6804"/>
<polyline points="7.000,-60.000 90.000,-60.000" fill="none" stroke="#999999" stroke-width="0.3402" stroke-dasharray="1.3608,0.6804"/>
<polyline points="90.000,0.000 90.000,-60.000" fill="none" stroke="#999999" stroke-width="0.3402" stroke-dasharray="1.3608,0.6804"/>
<polyline points="7.000,0.000 90.000,0.000" fill="none" stroke="#999999" stroke-width="0.3402" stroke-dasharray="1.3608,0.6804"/>
<polyline points="11.000,-60.000 11.000,0.000" fill="none" stroke="#999999" stroke-width="0.3402" stroke-dasharray="1.3608,0.6804"/>
<polyline points="90.000,0.000 90.000,-60.000" fill="none" stroke="#1a1a1a" stroke-width="0.3402" stroke-linecap="round" stroke-linejoin="round"/>
<polyline points="90.000,-60.000 7.000,-60.000" fill="none" stroke="#1a1a1a" stroke-width="0.3402" stroke-linecap="round" stroke-linejoin="round"/>
<polyline points="90.000,0.000 7.000,0.000" fill="none" stroke="#1a1a1a" stroke-width="0.3402" stroke-linecap="round" stroke-linejoin="round"/>
<polyline points="7.000,0.000 6.216,0.000 5.442,0.000 4.688,0.000 3.963,0.000 3.276,0.000 2.636,0.000 2.050,0.000 1.527,0.000 1.073,0.000 0.693,0.000 0.393,0.000 0.176,0.000 0.044,0.000 0.000,0.000" fill="none" stroke="#1a1a1a" stroke-width="0.3402" stroke-linecap="round" stroke-linejoin="round"/>
<polyline points="0.000,0.000 0.000,-60.000" fill="none" stroke="#1a1a1a" stroke-width="0.3402" stroke-linecap="round" stroke-linejoin="round"/>
<polyline points="7.000,-60.000 6.216,-60.000 5.442,-60.000 4.688,-60.000 3.963,-60.000 3.276,-60.000 2.636,-60.000 2.050,-60.000 1.527,-60.000 1.073,-60.000 0.693,-60.000 0.393,-60.000 0.176,-60.000 0.044,-60.000 0.000,-60.000" fill="none" stroke="#1a1a1a" stroke-width="0.3402" stroke-linecap="round" stroke-linejoin="round"/>
</g>
<text x="-1.656" y="-59.568" font-family="system-ui,sans-serif" font-size="3.888" fill="#555">TOP</text>
</svg>